<svg width="1279" height="628" viewBox="0 0 1279 628" fill="none" xmlns="http://www.w3.org/2000/svg">
<rect width="1279" height="628" rx="10" fill="black"/>
<path d="M631.062 282.141C631.062 281.672 631.227 281.273 631.555 280.945C631.883 280.617 632.281 280.453 632.75 280.453H642.875C643.344 280.453 643.742 280.617 644.07 280.945C644.398 281.273 644.562 281.672 644.562 282.141V285.516C644.562 285.984 644.398 286.383 644.07 286.711C643.742 287.039 643.344 287.203 642.875 287.203H632.75C632.281 287.203 631.883 287.039 631.555 286.711C631.227 286.383 631.062 285.984 631.062 285.516V282.141ZM627.688 279.609C627.688 278.906 627.93 278.312 628.414 277.828C628.914 277.328 629.516 277.078 630.219 277.078H645.406C646.109 277.078 646.711 277.328 647.211 277.828C647.711 278.312 647.961 278.906 647.961 279.609V280.453H649.648C650.102 280.453 650.492 280.617 650.82 280.945C651.164 281.273 651.336 281.672 651.336 282.141V285.516C651.336 285.984 651.164 286.383 650.82 286.711C650.492 287.039 650.102 287.203 649.648 287.203H647.961V288.047C647.961 288.75 647.711 289.352 647.211 289.852C646.711 290.352 646.109 290.602 645.406 290.602H630.219C629.516 290.602 628.914 290.352 628.414 289.852C627.93 289.352 627.688 288.75 627.688 288.047V279.609ZM646.273 279.609C646.273 279.375 646.188 279.18 646.016 279.023C645.844 278.852 645.641 278.766 645.406 278.766H630.219C629.984 278.766 629.781 278.852 629.609 279.023C629.453 279.18 629.375 279.375 629.375 279.609V288.047C629.375 288.281 629.453 288.484 629.609 288.656C629.781 288.828 629.984 288.914 630.219 288.914H645.406C645.641 288.914 645.844 288.828 646.016 288.656C646.188 288.484 646.273 288.281 646.273 288.047V279.609ZM617.539 263.555C618.008 263.555 618.406 263.727 618.734 264.07C619.062 264.398 619.227 264.789 619.227 265.242H621.758C622.461 265.242 623.062 265.492 623.562 265.992C624.062 266.492 624.312 267.094 624.312 267.797V266.953H642.875C644.453 266.953 645.844 267.438 647.047 268.406C648.266 269.359 649.062 270.562 649.438 272.016C649.578 272.562 649.648 273.125 649.648 273.703H661.461C661.93 273.703 662.328 273.867 662.656 274.195C662.984 274.523 663.148 274.922 663.148 275.391V285.516C663.148 285.984 662.984 286.383 662.656 286.711C662.328 287.039 661.93 287.203 661.461 287.203H656.398V297.352C656.398 298.289 656.07 299.086 655.414 299.742C654.758 300.398 653.961 300.727 653.023 300.727H627.688C626.75 300.727 625.953 300.398 625.297 299.742C624.641 299.086 624.312 298.289 624.312 297.352V272.859C624.312 273.562 624.062 274.164 623.562 274.664C623.062 275.148 622.461 275.391 621.758 275.391H619.227C619.227 275.859 619.062 276.258 618.734 276.586C618.406 276.914 618.008 277.078 617.539 277.078C617.07 277.078 616.672 276.914 616.344 276.586C616.016 276.258 615.852 275.859 615.852 275.391V265.242C615.852 264.789 616.016 264.398 616.344 264.07C616.672 263.727 617.07 263.555 617.539 263.555ZM659.773 285.516V275.391H656.398V285.516H659.773ZM654.711 275.391H626V292.289H654.711V275.391ZM634.438 296.508C634.438 296.742 634.516 296.938 634.672 297.094C634.844 297.266 635.047 297.352 635.281 297.352H636.969C637.203 297.352 637.398 297.266 637.555 297.094C637.727 296.938 637.812 296.742 637.812 296.508C637.812 296.273 637.727 296.07 637.555 295.898C637.398 295.742 637.203 295.664 636.969 295.664H635.281C635.047 295.664 634.844 295.742 634.672 295.898C634.516 296.07 634.438 296.273 634.438 296.508ZM643.719 297.352C643.953 297.352 644.148 297.266 644.305 297.094C644.477 296.938 644.562 296.742 644.562 296.508C644.562 296.273 644.477 296.07 644.305 295.898C644.148 295.742 643.953 295.664 643.719 295.664C643.484 295.664 643.281 295.742 643.109 295.898C642.953 296.07 642.875 296.273 642.875 296.508C642.875 296.742 642.953 296.938 643.109 297.094C643.281 297.266 643.484 297.352 643.719 297.352ZM647.656 272.016C647.312 271.031 646.703 270.227 645.828 269.602C644.969 268.961 643.984 268.641 642.875 268.641H626V272.016H647.656Z" fill="white"/>
<path d="M550.735 349H549.291V336.677H550.735V349ZM561.099 349H559.69V343.981C559.69 342.114 559.008 341.18 557.645 341.18C556.94 341.18 556.355 341.446 555.891 341.979C555.433 342.506 555.204 343.173 555.204 343.981V349H553.795V340.2H555.204V341.661H555.238C555.903 340.549 556.865 339.994 558.126 339.994C559.088 339.994 559.824 340.306 560.334 340.93C560.844 341.549 561.099 342.446 561.099 343.62V349ZM563.23 348.682V347.17C563.998 347.737 564.843 348.02 565.766 348.02C567.003 348.02 567.622 347.608 567.622 346.783C567.622 346.548 567.567 346.35 567.459 346.19C567.355 346.024 567.212 345.878 567.029 345.752C566.851 345.626 566.639 345.514 566.393 345.416C566.152 345.313 565.892 345.207 565.611 345.098C565.221 344.944 564.878 344.789 564.58 344.634C564.288 344.474 564.041 344.296 563.841 344.102C563.646 343.901 563.497 343.675 563.394 343.423C563.296 343.171 563.248 342.876 563.248 342.537C563.248 342.125 563.342 341.761 563.531 341.446C563.72 341.125 563.972 340.859 564.288 340.647C564.603 340.429 564.961 340.266 565.362 340.157C565.768 340.048 566.187 339.994 566.616 339.994C567.378 339.994 568.06 340.126 568.662 340.389V341.816C568.014 341.392 567.27 341.18 566.427 341.18C566.164 341.18 565.926 341.211 565.714 341.274C565.502 341.332 565.319 341.415 565.164 341.523C565.015 341.632 564.898 341.764 564.812 341.919C564.732 342.068 564.691 342.234 564.691 342.417C564.691 342.646 564.732 342.838 564.812 342.993C564.898 343.148 565.021 343.285 565.181 343.405C565.342 343.526 565.536 343.635 565.766 343.732C565.995 343.829 566.255 343.935 566.548 344.05C566.937 344.199 567.287 344.354 567.596 344.514C567.905 344.669 568.169 344.846 568.387 345.047C568.604 345.242 568.771 345.468 568.885 345.726C569.005 345.984 569.066 346.29 569.066 346.645C569.066 347.081 568.968 347.459 568.773 347.78C568.584 348.101 568.329 348.367 568.009 348.579C567.688 348.791 567.318 348.948 566.9 349.052C566.482 349.155 566.043 349.206 565.585 349.206C564.68 349.206 563.895 349.032 563.23 348.682ZM575.322 348.914C574.99 349.097 574.551 349.189 574.007 349.189C572.466 349.189 571.695 348.33 571.695 346.611V341.403H570.183V340.2H571.695V338.052L573.105 337.596V340.2H575.322V341.403H573.105V346.362C573.105 346.952 573.205 347.373 573.405 347.625C573.606 347.877 573.938 348.003 574.402 348.003C574.758 348.003 575.064 347.906 575.322 347.711V348.914ZM581.793 341.627C581.547 341.437 581.191 341.343 580.727 341.343C580.126 341.343 579.622 341.627 579.215 342.194C578.814 342.761 578.613 343.534 578.613 344.514V349H577.204V340.2H578.613V342.013H578.648C578.848 341.395 579.155 340.913 579.567 340.57C579.98 340.22 580.441 340.045 580.951 340.045C581.317 340.045 581.598 340.085 581.793 340.166V341.627ZM590.438 349H589.029V347.608H588.995C588.41 348.673 587.505 349.206 586.279 349.206C584.182 349.206 583.134 347.957 583.134 345.459V340.2H584.534V345.236C584.534 347.092 585.245 348.02 586.666 348.02C587.353 348.02 587.917 347.768 588.359 347.264C588.805 346.754 589.029 346.09 589.029 345.27V340.2H590.438V349ZM599.29 348.596C598.614 349.003 597.812 349.206 596.884 349.206C595.629 349.206 594.615 348.799 593.841 347.986C593.074 347.167 592.69 346.107 592.69 344.806C592.69 343.357 593.105 342.194 593.936 341.317C594.767 340.435 595.875 339.994 597.262 339.994C598.035 339.994 598.717 340.137 599.307 340.423V341.867C598.654 341.409 597.955 341.18 597.21 341.18C596.311 341.18 595.572 341.503 594.993 342.151C594.42 342.792 594.134 343.637 594.134 344.686C594.134 345.717 594.403 346.531 594.941 347.127C595.486 347.722 596.213 348.02 597.124 348.02C597.892 348.02 598.614 347.765 599.29 347.255V348.596ZM605.503 348.914C605.171 349.097 604.733 349.189 604.188 349.189C602.647 349.189 601.877 348.33 601.877 346.611V341.403H600.364V340.2H601.877V338.052L603.286 337.596V340.2H605.503V341.403H603.286V346.362C603.286 346.952 603.386 347.373 603.587 347.625C603.787 347.877 604.12 348.003 604.584 348.003C604.939 348.003 605.245 347.906 605.503 347.711V348.914ZM611.063 349.206C609.763 349.206 608.723 348.797 607.944 347.977C607.17 347.152 606.784 346.061 606.784 344.703C606.784 343.225 607.188 342.071 607.995 341.24C608.803 340.409 609.895 339.994 611.27 339.994C612.582 339.994 613.604 340.398 614.338 341.205C615.077 342.013 615.446 343.133 615.446 344.566C615.446 345.969 615.048 347.095 614.252 347.943C613.461 348.785 612.398 349.206 611.063 349.206ZM611.166 341.18C610.261 341.18 609.545 341.489 609.018 342.108C608.491 342.721 608.227 343.569 608.227 344.652C608.227 345.694 608.494 346.516 609.027 347.118C609.559 347.72 610.273 348.02 611.166 348.02C612.077 348.02 612.776 347.725 613.263 347.135C613.756 346.545 614.002 345.706 614.002 344.617C614.002 343.517 613.756 342.669 613.263 342.073C612.776 341.478 612.077 341.18 611.166 341.18ZM622.287 341.627C622.04 341.437 621.685 341.343 621.221 341.343C620.62 341.343 620.115 341.627 619.709 342.194C619.308 342.761 619.107 343.534 619.107 344.514V349H617.698V340.2H619.107V342.013H619.141C619.342 341.395 619.648 340.913 620.061 340.57C620.473 340.22 620.935 340.045 621.445 340.045C621.811 340.045 622.092 340.085 622.287 340.166V341.627ZM637.996 336.677L633.433 349H631.843L627.374 336.677H628.981L632.393 346.448C632.502 346.763 632.585 347.127 632.642 347.539H632.677C632.722 347.195 632.817 346.826 632.96 346.43L636.441 336.677H637.996ZM640.299 337.966C640.047 337.966 639.832 337.88 639.655 337.708C639.477 337.536 639.388 337.318 639.388 337.055C639.388 336.791 639.477 336.573 639.655 336.402C639.832 336.224 640.047 336.135 640.299 336.135C640.557 336.135 640.775 336.224 640.952 336.402C641.136 336.573 641.227 336.791 641.227 337.055C641.227 337.307 641.136 337.522 640.952 337.699C640.775 337.877 640.557 337.966 640.299 337.966ZM640.987 349H639.577V340.2H640.987V349ZM651.351 349H649.941V347.505H649.907C649.254 348.639 648.246 349.206 646.882 349.206C645.776 349.206 644.891 348.814 644.227 348.029C643.568 347.238 643.238 346.164 643.238 344.806C643.238 343.351 643.605 342.185 644.338 341.309C645.072 340.432 646.048 339.994 647.269 339.994C648.478 339.994 649.357 340.469 649.907 341.42H649.941V335.972H651.351V349ZM649.941 345.021V343.723C649.941 343.013 649.707 342.411 649.237 341.919C648.767 341.426 648.171 341.18 647.449 341.18C646.59 341.18 645.914 341.495 645.421 342.125C644.928 342.755 644.682 343.626 644.682 344.737C644.682 345.752 644.917 346.554 645.387 347.144C645.862 347.728 646.498 348.02 647.295 348.02C648.079 348.02 648.715 347.737 649.202 347.17C649.695 346.602 649.941 345.886 649.941 345.021ZM661.277 344.952H655.063C655.086 345.932 655.35 346.688 655.854 347.221C656.358 347.754 657.051 348.02 657.934 348.02C658.925 348.02 659.836 347.694 660.666 347.041V348.364C659.893 348.926 658.87 349.206 657.598 349.206C656.355 349.206 655.378 348.808 654.668 348.012C653.958 347.21 653.602 346.084 653.602 344.634C653.602 343.265 653.989 342.151 654.763 341.291C655.542 340.426 656.507 339.994 657.659 339.994C658.81 339.994 659.701 340.366 660.331 341.111C660.961 341.856 661.277 342.89 661.277 344.213V344.952ZM659.833 343.758C659.827 342.944 659.629 342.311 659.24 341.859C658.856 341.406 658.32 341.18 657.633 341.18C656.968 341.18 656.404 341.417 655.94 341.893C655.476 342.368 655.189 342.99 655.08 343.758H659.833ZM667.095 349.206C665.794 349.206 664.754 348.797 663.975 347.977C663.202 347.152 662.815 346.061 662.815 344.703C662.815 343.225 663.219 342.071 664.027 341.24C664.834 340.409 665.926 339.994 667.301 339.994C668.613 339.994 669.635 340.398 670.369 341.205C671.108 342.013 671.477 343.133 671.477 344.566C671.477 345.969 671.079 347.095 670.283 347.943C669.492 348.785 668.429 349.206 667.095 349.206ZM667.198 341.18C666.292 341.18 665.576 341.489 665.049 342.108C664.522 342.721 664.259 343.569 664.259 344.652C664.259 345.694 664.525 346.516 665.058 347.118C665.591 347.72 666.304 348.02 667.198 348.02C668.109 348.02 668.808 347.725 669.295 347.135C669.787 346.545 670.034 345.706 670.034 344.617C670.034 343.517 669.787 342.669 669.295 342.073C668.808 341.478 668.109 341.18 667.198 341.18ZM678.172 348.502V346.8C678.367 346.972 678.599 347.127 678.868 347.264C679.143 347.402 679.429 347.519 679.727 347.616C680.031 347.708 680.335 347.78 680.638 347.831C680.942 347.883 681.223 347.909 681.48 347.909C682.368 347.909 683.03 347.745 683.466 347.419C683.907 347.086 684.127 346.611 684.127 345.992C684.127 345.66 684.053 345.371 683.904 345.124C683.761 344.878 683.56 344.654 683.302 344.454C683.045 344.248 682.738 344.053 682.383 343.87C682.033 343.68 681.655 343.483 681.248 343.277C680.819 343.059 680.418 342.838 680.045 342.615C679.673 342.391 679.349 342.145 679.074 341.876C678.799 341.607 678.582 341.303 678.421 340.965C678.266 340.621 678.189 340.22 678.189 339.762C678.189 339.2 678.312 338.713 678.559 338.301C678.805 337.883 679.129 337.539 679.53 337.27C679.931 337 680.386 336.8 680.896 336.668C681.412 336.536 681.936 336.47 682.469 336.47C683.683 336.47 684.568 336.616 685.124 336.909V338.533C684.397 338.029 683.463 337.777 682.323 337.777C682.008 337.777 681.692 337.811 681.377 337.88C681.062 337.943 680.782 338.049 680.535 338.198C680.289 338.347 680.088 338.539 679.934 338.773C679.779 339.008 679.702 339.295 679.702 339.633C679.702 339.948 679.759 340.22 679.873 340.449C679.994 340.678 680.168 340.887 680.398 341.077C680.627 341.266 680.905 341.449 681.231 341.627C681.564 341.804 681.945 341.999 682.374 342.211C682.815 342.429 683.234 342.658 683.629 342.898C684.024 343.139 684.371 343.405 684.669 343.698C684.967 343.99 685.202 344.314 685.373 344.669C685.551 345.024 685.64 345.431 685.64 345.889C685.64 346.496 685.52 347.012 685.279 347.436C685.044 347.854 684.723 348.195 684.316 348.459C683.915 348.722 683.451 348.911 682.924 349.026C682.397 349.146 681.841 349.206 681.257 349.206C681.062 349.206 680.822 349.189 680.535 349.155C680.249 349.126 679.957 349.08 679.659 349.017C679.361 348.96 679.077 348.888 678.808 348.802C678.544 348.711 678.332 348.61 678.172 348.502ZM691.423 348.914C691.091 349.097 690.653 349.189 690.109 349.189C688.567 349.189 687.797 348.33 687.797 346.611V341.403H686.284V340.2H687.797V338.052L689.206 337.596V340.2H691.423V341.403H689.206V346.362C689.206 346.952 689.307 347.373 689.507 347.625C689.708 347.877 690.04 348.003 690.504 348.003C690.859 348.003 691.166 347.906 691.423 347.711V348.914ZM697.895 341.627C697.648 341.437 697.293 341.343 696.829 341.343C696.227 341.343 695.723 341.627 695.316 342.194C694.915 342.761 694.715 343.534 694.715 344.514V349H693.305V340.2H694.715V342.013H694.749C694.95 341.395 695.256 340.913 695.669 340.57C696.081 340.22 696.542 340.045 697.052 340.045C697.419 340.045 697.7 340.085 697.895 340.166V341.627ZM706.497 344.952H700.284C700.307 345.932 700.57 346.688 701.074 347.221C701.578 347.754 702.272 348.02 703.154 348.02C704.145 348.02 705.056 347.694 705.887 347.041V348.364C705.113 348.926 704.091 349.206 702.819 349.206C701.576 349.206 700.599 348.808 699.888 348.012C699.178 347.21 698.823 346.084 698.823 344.634C698.823 343.265 699.209 342.151 699.983 341.291C700.762 340.426 701.727 339.994 702.879 339.994C704.03 339.994 704.921 340.366 705.552 341.111C706.182 341.856 706.497 342.89 706.497 344.213V344.952ZM705.053 343.758C705.047 342.944 704.85 342.311 704.46 341.859C704.076 341.406 703.541 341.18 702.853 341.18C702.189 341.18 701.624 341.417 701.16 341.893C700.696 342.368 700.41 342.99 700.301 343.758H705.053ZM714.936 349H713.527V347.625H713.492C712.879 348.679 711.977 349.206 710.785 349.206C709.909 349.206 709.221 348.974 708.723 348.51C708.23 348.046 707.984 347.43 707.984 346.662C707.984 345.018 708.952 344.061 710.888 343.792L713.527 343.423C713.527 341.927 712.922 341.18 711.713 341.18C710.653 341.18 709.697 341.541 708.843 342.262V340.819C709.708 340.269 710.705 339.994 711.834 339.994C713.902 339.994 714.936 341.088 714.936 343.277V349ZM713.527 344.548L711.404 344.841C710.751 344.932 710.258 345.096 709.926 345.33C709.593 345.56 709.427 345.969 709.427 346.559C709.427 346.989 709.579 347.341 709.883 347.616C710.192 347.886 710.602 348.02 711.112 348.02C711.811 348.02 712.386 347.777 712.839 347.29C713.297 346.797 713.527 346.176 713.527 345.425V344.548ZM730.087 349H728.677V343.947C728.677 342.973 728.526 342.268 728.222 341.833C727.924 341.397 727.42 341.18 726.709 341.18C726.108 341.18 725.595 341.455 725.171 342.005C724.753 342.555 724.544 343.214 724.544 343.981V349H723.134V343.775C723.134 342.045 722.467 341.18 721.132 341.18C720.513 341.18 720.003 341.44 719.602 341.962C719.201 342.477 719.001 343.151 719.001 343.981V349H717.591V340.2H719.001V341.592H719.035C719.66 340.527 720.571 339.994 721.768 339.994C722.37 339.994 722.894 340.163 723.341 340.501C723.787 340.833 724.094 341.271 724.26 341.816C724.913 340.601 725.887 339.994 727.182 339.994C729.118 339.994 730.087 341.188 730.087 343.577V349Z" fill="white"/>
<g opacity="0.8">
<path d="M516.924 367.922V366.53C517.084 366.671 517.273 366.797 517.494 366.91C517.719 367.022 517.953 367.118 518.197 367.198C518.445 367.273 518.694 367.332 518.942 367.374C519.191 367.416 519.42 367.437 519.631 367.437C520.358 367.437 520.899 367.303 521.255 367.036C521.616 366.764 521.797 366.375 521.797 365.869C521.797 365.597 521.736 365.36 521.614 365.159C521.497 364.957 521.333 364.775 521.122 364.61C520.911 364.442 520.66 364.282 520.37 364.132C520.084 363.978 519.774 363.816 519.441 363.647C519.09 363.469 518.762 363.289 518.457 363.106C518.152 362.923 517.888 362.721 517.663 362.501C517.438 362.281 517.259 362.032 517.128 361.756C517.002 361.475 516.938 361.146 516.938 360.771C516.938 360.312 517.039 359.914 517.241 359.576C517.442 359.234 517.707 358.953 518.035 358.732C518.363 358.512 518.736 358.348 519.153 358.24C519.575 358.132 520.004 358.078 520.44 358.078C521.434 358.078 522.158 358.198 522.613 358.437V359.766C522.017 359.353 521.253 359.147 520.32 359.147C520.063 359.147 519.805 359.175 519.547 359.232C519.289 359.283 519.059 359.37 518.858 359.492C518.656 359.614 518.492 359.771 518.366 359.963C518.239 360.155 518.176 360.389 518.176 360.666C518.176 360.924 518.223 361.146 518.316 361.334C518.415 361.521 518.558 361.693 518.745 361.847C518.933 362.002 519.16 362.152 519.427 362.297C519.699 362.443 520.011 362.602 520.363 362.775C520.723 362.953 521.066 363.141 521.389 363.338C521.713 363.535 521.996 363.753 522.24 363.992C522.484 364.231 522.676 364.496 522.816 364.786C522.962 365.077 523.034 365.41 523.034 365.785C523.034 366.282 522.936 366.703 522.739 367.05C522.547 367.393 522.284 367.671 521.952 367.887C521.623 368.103 521.244 368.257 520.813 368.351C520.381 368.45 519.927 368.499 519.448 368.499C519.289 368.499 519.092 368.485 518.858 368.457C518.623 368.433 518.384 368.396 518.141 368.344C517.897 368.297 517.665 368.239 517.445 368.168C517.229 368.093 517.055 368.011 516.924 367.922ZM530.045 368.33H528.891V367.205H528.863C528.362 368.068 527.623 368.499 526.648 368.499C525.931 368.499 525.369 368.309 524.961 367.929C524.558 367.55 524.356 367.046 524.356 366.418C524.356 365.072 525.148 364.289 526.733 364.069L528.891 363.767C528.891 362.543 528.397 361.932 527.408 361.932C526.541 361.932 525.758 362.227 525.059 362.818V361.636C525.767 361.186 526.583 360.961 527.506 360.961C529.198 360.961 530.045 361.857 530.045 363.647V368.33ZM528.891 364.688L527.155 364.927C526.62 365.002 526.217 365.135 525.945 365.328C525.673 365.515 525.538 365.85 525.538 366.333C525.538 366.685 525.662 366.973 525.91 367.198C526.163 367.418 526.498 367.528 526.916 367.528C527.488 367.528 527.959 367.329 528.329 366.931C528.704 366.528 528.891 366.019 528.891 365.405V364.688ZM535.972 362.297C535.77 362.143 535.48 362.065 535.1 362.065C534.608 362.065 534.195 362.297 533.863 362.761C533.534 363.225 533.37 363.858 533.37 364.66V368.33H532.217V361.13H533.37V362.614H533.398C533.563 362.107 533.813 361.714 534.151 361.432C534.488 361.146 534.866 361.003 535.283 361.003C535.583 361.003 535.813 361.036 535.972 361.102V362.297ZM542.377 368.33H541.224V367.205H541.196C540.695 368.068 539.956 368.499 538.981 368.499C538.264 368.499 537.702 368.309 537.294 367.929C536.891 367.55 536.689 367.046 536.689 366.418C536.689 365.072 537.481 364.289 539.066 364.069L541.224 363.767C541.224 362.543 540.73 361.932 539.741 361.932C538.873 361.932 538.091 362.227 537.392 362.818V361.636C538.1 361.186 538.916 360.961 539.839 360.961C541.531 360.961 542.377 361.857 542.377 363.647V368.33ZM541.224 364.688L539.488 364.927C538.953 365.002 538.55 365.135 538.278 365.328C538.006 365.515 537.87 365.85 537.87 366.333C537.87 366.685 537.995 366.973 538.243 367.198C538.496 367.418 538.831 367.528 539.248 367.528C539.82 367.528 540.291 367.329 540.662 366.931C541.037 366.528 541.224 366.019 541.224 365.405V364.688ZM550.527 368.33H549.373V364.182C549.373 362.682 548.816 361.932 547.7 361.932C547.138 361.932 546.664 362.15 546.28 362.585C545.895 363.017 545.703 363.572 545.703 364.252V368.33H544.55V357.671H545.703V362.325H545.731C546.284 361.416 547.072 360.961 548.094 360.961C549.716 360.961 550.527 361.939 550.527 363.893V368.33ZM559.393 364.716C559.393 365.911 559.14 366.842 558.634 367.507C558.127 368.168 557.45 368.499 556.602 368.499C556.208 368.499 555.884 368.443 555.631 368.33V367.163C555.884 367.346 556.213 367.437 556.616 367.437C557.68 367.437 558.212 366.535 558.212 364.73V358.247H559.393V364.716ZM564.814 368.499C563.75 368.499 562.899 368.164 562.262 367.493C561.629 366.818 561.313 365.925 561.313 364.814C561.313 363.605 561.643 362.66 562.304 361.981C562.965 361.301 563.858 360.961 564.983 360.961C566.056 360.961 566.893 361.292 567.493 361.953C568.098 362.614 568.4 363.53 568.4 364.702C568.4 365.85 568.074 366.771 567.423 367.465C566.776 368.154 565.906 368.499 564.814 368.499ZM564.898 361.932C564.158 361.932 563.572 362.185 563.141 362.691C562.709 363.193 562.494 363.886 562.494 364.772C562.494 365.625 562.712 366.298 563.148 366.79C563.584 367.282 564.167 367.528 564.898 367.528C565.644 367.528 566.216 367.287 566.614 366.804C567.017 366.321 567.219 365.635 567.219 364.744C567.219 363.844 567.017 363.15 566.614 362.663C566.216 362.175 565.644 361.932 564.898 361.932ZM576.219 368.33H575.066V364.182C575.066 362.682 574.508 361.932 573.392 361.932C572.83 361.932 572.356 362.15 571.972 362.585C571.588 363.017 571.395 363.572 571.395 364.252V368.33H570.242V357.671H571.395V362.325H571.423C571.977 361.416 572.764 360.961 573.786 360.961C575.408 360.961 576.219 361.939 576.219 363.893V368.33ZM584.375 368.33H583.222V364.224C583.222 362.696 582.664 361.932 581.548 361.932C580.972 361.932 580.494 362.15 580.114 362.585C579.739 363.017 579.552 363.563 579.552 364.224V368.33H578.398V361.13H579.552V362.325H579.58C580.123 361.416 580.911 360.961 581.942 360.961C582.73 360.961 583.332 361.217 583.749 361.728C584.166 362.234 584.375 362.968 584.375 363.928V368.33ZM586.119 368.07V366.832C586.747 367.296 587.438 367.528 588.193 367.528C589.205 367.528 589.712 367.191 589.712 366.516C589.712 366.324 589.667 366.162 589.578 366.031C589.494 365.895 589.377 365.775 589.227 365.672C589.081 365.569 588.908 365.478 588.706 365.398C588.509 365.314 588.296 365.227 588.066 365.138C587.748 365.011 587.466 364.885 587.223 364.758C586.984 364.627 586.782 364.482 586.618 364.322C586.459 364.158 586.337 363.973 586.252 363.767C586.173 363.56 586.133 363.319 586.133 363.043C586.133 362.705 586.21 362.407 586.365 362.15C586.52 361.887 586.726 361.669 586.984 361.496C587.241 361.318 587.534 361.184 587.863 361.095C588.195 361.006 588.538 360.961 588.889 360.961C589.513 360.961 590.07 361.069 590.563 361.285V362.452C590.033 362.105 589.423 361.932 588.734 361.932C588.519 361.932 588.324 361.957 588.151 362.009C587.977 362.056 587.827 362.124 587.701 362.213C587.579 362.302 587.483 362.41 587.413 362.536C587.347 362.658 587.314 362.794 587.314 362.944C587.314 363.132 587.347 363.289 587.413 363.415C587.483 363.542 587.584 363.654 587.715 363.753C587.846 363.851 588.005 363.94 588.193 364.02C588.38 364.1 588.594 364.186 588.833 364.28C589.152 364.402 589.438 364.528 589.691 364.66C589.944 364.786 590.159 364.932 590.338 365.096C590.516 365.255 590.652 365.44 590.745 365.651C590.844 365.862 590.893 366.113 590.893 366.403C590.893 366.76 590.813 367.069 590.654 367.332C590.499 367.594 590.291 367.812 590.028 367.985C589.766 368.159 589.463 368.288 589.121 368.372C588.779 368.457 588.42 368.499 588.045 368.499C587.305 368.499 586.663 368.356 586.119 368.07ZM595.681 368.499C594.617 368.499 593.766 368.164 593.129 367.493C592.496 366.818 592.18 365.925 592.18 364.814C592.18 363.605 592.51 362.66 593.171 361.981C593.832 361.301 594.725 360.961 595.85 360.961C596.923 360.961 597.76 361.292 598.36 361.953C598.965 362.614 599.267 363.53 599.267 364.702C599.267 365.85 598.941 366.771 598.29 367.465C597.643 368.154 596.773 368.499 595.681 368.499ZM595.766 361.932C595.025 361.932 594.439 362.185 594.008 362.691C593.577 363.193 593.361 363.886 593.361 364.772C593.361 365.625 593.579 366.298 594.015 366.79C594.451 367.282 595.034 367.528 595.766 367.528C596.511 367.528 597.083 367.287 597.481 366.804C597.884 366.321 598.086 365.635 598.086 364.744C598.086 363.844 597.884 363.15 597.481 362.663C597.083 362.175 596.511 361.932 595.766 361.932ZM607.086 368.33H605.933V364.224C605.933 362.696 605.375 361.932 604.259 361.932C603.683 361.932 603.205 362.15 602.825 362.585C602.45 363.017 602.263 363.563 602.263 364.224V368.33H601.109V361.13H602.263V362.325H602.291C602.834 361.416 603.622 360.961 604.653 360.961C605.441 360.961 606.043 361.217 606.46 361.728C606.877 362.234 607.086 362.968 607.086 363.928V368.33ZM614.398 367.289H614.37V371.642H613.217V361.13H614.37V362.396H614.398C614.966 361.439 615.795 360.961 616.888 360.961C617.816 360.961 618.54 361.285 619.06 361.932C619.58 362.574 619.841 363.436 619.841 364.519C619.841 365.724 619.548 366.689 618.962 367.416C618.376 368.138 617.574 368.499 616.557 368.499C615.624 368.499 614.905 368.096 614.398 367.289ZM614.37 364.385V365.391C614.37 365.986 614.563 366.493 614.947 366.91C615.336 367.322 615.828 367.528 616.423 367.528C617.122 367.528 617.668 367.261 618.062 366.727C618.46 366.193 618.659 365.45 618.659 364.498C618.659 363.696 618.474 363.068 618.104 362.614C617.734 362.159 617.232 361.932 616.599 361.932C615.929 361.932 615.39 362.166 614.982 362.635C614.574 363.099 614.37 363.682 614.37 364.385ZM625.437 362.297C625.236 362.143 624.945 362.065 624.566 362.065C624.073 362.065 623.661 362.297 623.328 362.761C623 363.225 622.836 363.858 622.836 364.66V368.33H621.683V361.13H622.836V362.614H622.864C623.028 362.107 623.279 361.714 623.616 361.432C623.954 361.146 624.331 361.003 624.748 361.003C625.048 361.003 625.278 361.036 625.437 361.102V362.297ZM632.476 365.018H627.392C627.411 365.82 627.627 366.439 628.039 366.875C628.452 367.31 629.019 367.528 629.741 367.528C630.552 367.528 631.297 367.261 631.977 366.727V367.81C631.344 368.269 630.507 368.499 629.466 368.499C628.449 368.499 627.65 368.173 627.069 367.521C626.487 366.865 626.197 365.944 626.197 364.758C626.197 363.638 626.513 362.726 627.146 362.023C627.784 361.315 628.573 360.961 629.516 360.961C630.458 360.961 631.187 361.266 631.702 361.875C632.218 362.485 632.476 363.331 632.476 364.414V365.018ZM631.295 364.041C631.29 363.375 631.128 362.857 630.809 362.487C630.495 362.117 630.057 361.932 629.495 361.932C628.951 361.932 628.489 362.126 628.109 362.515C627.73 362.904 627.495 363.413 627.406 364.041H631.295ZM633.791 368.07V366.832C634.419 367.296 635.11 367.528 635.865 367.528C636.877 367.528 637.384 367.191 637.384 366.516C637.384 366.324 637.339 366.162 637.25 366.031C637.166 365.895 637.048 365.775 636.898 365.672C636.753 365.569 636.58 365.478 636.378 365.398C636.181 365.314 635.968 365.227 635.738 365.138C635.42 365.011 635.138 364.885 634.895 364.758C634.655 364.627 634.454 364.482 634.29 364.322C634.13 364.158 634.009 363.973 633.924 363.767C633.845 363.56 633.805 363.319 633.805 363.043C633.805 362.705 633.882 362.407 634.037 362.15C634.191 361.887 634.398 361.669 634.655 361.496C634.913 361.318 635.206 361.184 635.534 361.095C635.867 361.006 636.209 360.961 636.561 360.961C637.184 360.961 637.742 361.069 638.234 361.285V362.452C637.705 362.105 637.095 361.932 636.406 361.932C636.191 361.932 635.996 361.957 635.823 362.009C635.649 362.056 635.499 362.124 635.373 362.213C635.251 362.302 635.155 362.41 635.084 362.536C635.019 362.658 634.986 362.794 634.986 362.944C634.986 363.132 635.019 363.289 635.084 363.415C635.155 363.542 635.255 363.654 635.387 363.753C635.518 363.851 635.677 363.94 635.865 364.02C636.052 364.1 636.266 364.186 636.505 364.28C636.823 364.402 637.109 364.528 637.363 364.66C637.616 364.786 637.831 364.932 638.009 365.096C638.188 365.255 638.323 365.44 638.417 365.651C638.516 365.862 638.565 366.113 638.565 366.403C638.565 366.76 638.485 367.069 638.326 367.332C638.171 367.594 637.963 367.812 637.7 367.985C637.438 368.159 637.135 368.288 636.793 368.372C636.451 368.457 636.092 368.499 635.717 368.499C634.977 368.499 634.334 368.356 633.791 368.07ZM646.13 365.018H641.047C641.066 365.82 641.281 366.439 641.694 366.875C642.106 367.31 642.673 367.528 643.395 367.528C644.206 367.528 644.952 367.261 645.631 366.727V367.81C644.998 368.269 644.162 368.499 643.121 368.499C642.104 368.499 641.305 368.173 640.723 367.521C640.142 366.865 639.852 365.944 639.852 364.758C639.852 363.638 640.168 362.726 640.801 362.023C641.438 361.315 642.228 360.961 643.17 360.961C644.113 360.961 644.841 361.266 645.357 361.875C645.873 362.485 646.13 363.331 646.13 364.414V365.018ZM644.949 364.041C644.945 363.375 644.783 362.857 644.464 362.487C644.15 362.117 643.712 361.932 643.149 361.932C642.605 361.932 642.144 362.126 641.764 362.515C641.384 362.904 641.15 363.413 641.061 364.041H644.949ZM653.858 368.33H652.705V364.224C652.705 362.696 652.147 361.932 651.031 361.932C650.455 361.932 649.977 362.15 649.597 362.585C649.222 363.017 649.034 363.563 649.034 364.224V368.33H647.881V361.13H649.034V362.325H649.063C649.606 361.416 650.394 360.961 651.425 360.961C652.213 360.961 652.815 361.217 653.232 361.728C653.649 362.234 653.858 362.968 653.858 363.928V368.33ZM659.377 368.26C659.105 368.41 658.747 368.485 658.302 368.485C657.041 368.485 656.41 367.782 656.41 366.375V362.114H655.173V361.13H656.41V359.372L657.563 359V361.13H659.377V362.114H657.563V366.171C657.563 366.654 657.645 366.999 657.809 367.205C657.973 367.411 658.245 367.514 658.625 367.514C658.916 367.514 659.166 367.435 659.377 367.275V368.26ZM661.508 359.302C661.302 359.302 661.126 359.232 660.98 359.091C660.835 358.95 660.762 358.772 660.762 358.557C660.762 358.341 660.835 358.163 660.98 358.022C661.126 357.877 661.302 357.804 661.508 357.804C661.719 357.804 661.897 357.877 662.042 358.022C662.192 358.163 662.267 358.341 662.267 358.557C662.267 358.763 662.192 358.939 662.042 359.084C661.897 359.229 661.719 359.302 661.508 359.302ZM662.07 368.33H660.917V361.13H662.07V368.33ZM670.381 368.33H669.228V364.224C669.228 362.696 668.67 361.932 667.555 361.932C666.978 361.932 666.5 362.15 666.12 362.585C665.745 363.017 665.558 363.563 665.558 364.224V368.33H664.405V361.13H665.558V362.325H665.586C666.13 361.416 666.917 360.961 667.948 360.961C668.736 360.961 669.338 361.217 669.755 361.728C670.173 362.234 670.381 362.968 670.381 363.928V368.33ZM678.706 367.753C678.706 370.397 677.441 371.719 674.909 371.719C674.019 371.719 673.241 371.55 672.575 371.213V370.06C673.386 370.51 674.159 370.735 674.895 370.735C676.667 370.735 677.553 369.793 677.553 367.908V367.121H677.525C676.977 368.039 676.152 368.499 675.05 368.499C674.155 368.499 673.433 368.18 672.884 367.543C672.341 366.9 672.069 366.04 672.069 364.962C672.069 363.739 672.362 362.766 672.948 362.044C673.538 361.322 674.345 360.961 675.366 360.961C676.337 360.961 677.056 361.35 677.525 362.128H677.553V361.13H678.706V367.753ZM677.553 365.075V364.013C677.553 363.441 677.359 362.951 676.97 362.543C676.585 362.135 676.105 361.932 675.528 361.932C674.816 361.932 674.258 362.192 673.855 362.712C673.452 363.228 673.25 363.952 673.25 364.885C673.25 365.686 673.442 366.328 673.827 366.811C674.216 367.289 674.729 367.528 675.366 367.528C676.013 367.528 676.538 367.299 676.941 366.839C677.349 366.38 677.553 365.792 677.553 365.075ZM684.556 368.07V366.832C685.184 367.296 685.876 367.528 686.63 367.528C687.643 367.528 688.149 367.191 688.149 366.516C688.149 366.324 688.105 366.162 688.016 366.031C687.931 365.895 687.814 365.775 687.664 365.672C687.519 365.569 687.345 365.478 687.144 365.398C686.947 365.314 686.734 365.227 686.504 365.138C686.185 365.011 685.904 364.885 685.66 364.758C685.421 364.627 685.22 364.482 685.055 364.322C684.896 364.158 684.774 363.973 684.69 363.767C684.61 363.56 684.57 363.319 684.57 363.043C684.57 362.705 684.648 362.407 684.802 362.15C684.957 361.887 685.163 361.669 685.421 361.496C685.679 361.318 685.972 361.184 686.3 361.095C686.633 361.006 686.975 360.961 687.327 360.961C687.95 360.961 688.508 361.069 689 361.285V362.452C688.47 362.105 687.861 361.932 687.172 361.932C686.956 361.932 686.762 361.957 686.588 362.009C686.415 362.056 686.265 362.124 686.138 362.213C686.016 362.302 685.92 362.41 685.85 362.536C685.784 362.658 685.752 362.794 685.752 362.944C685.752 363.132 685.784 363.289 685.85 363.415C685.92 363.542 686.021 363.654 686.152 363.753C686.284 363.851 686.443 363.94 686.63 364.02C686.818 364.1 687.031 364.186 687.27 364.28C687.589 364.402 687.875 364.528 688.128 364.66C688.381 364.786 688.597 364.932 688.775 365.096C688.953 365.255 689.089 365.44 689.183 365.651C689.281 365.862 689.33 366.113 689.33 366.403C689.33 366.76 689.251 367.069 689.091 367.332C688.937 367.594 688.728 367.812 688.466 367.985C688.203 368.159 687.901 368.288 687.559 368.372C687.216 368.457 686.858 368.499 686.483 368.499C685.742 368.499 685.1 368.356 684.556 368.07ZM696.017 368C695.464 368.332 694.808 368.499 694.048 368.499C693.022 368.499 692.192 368.166 691.559 367.5C690.931 366.83 690.617 365.963 690.617 364.899C690.617 363.713 690.957 362.761 691.637 362.044C692.316 361.322 693.223 360.961 694.358 360.961C694.991 360.961 695.548 361.078 696.031 361.313V362.494C695.497 362.119 694.925 361.932 694.316 361.932C693.58 361.932 692.975 362.196 692.502 362.726C692.033 363.251 691.798 363.943 691.798 364.8C691.798 365.644 692.019 366.31 692.459 366.797C692.905 367.285 693.5 367.528 694.245 367.528C694.873 367.528 695.464 367.32 696.017 366.903V368ZM701.516 362.297C701.314 362.143 701.023 362.065 700.644 362.065C700.152 362.065 699.739 362.297 699.406 362.761C699.078 363.225 698.914 363.858 698.914 364.66V368.33H697.761V361.13H698.914V362.614H698.942C699.106 362.107 699.357 361.714 699.695 361.432C700.032 361.146 700.409 361.003 700.827 361.003C701.127 361.003 701.356 361.036 701.516 361.102V362.297ZM708.554 365.018H703.47C703.489 365.82 703.705 366.439 704.117 366.875C704.53 367.31 705.097 367.528 705.819 367.528C706.63 367.528 707.375 367.261 708.055 366.727V367.81C707.422 368.269 706.585 368.499 705.545 368.499C704.527 368.499 703.728 368.173 703.147 367.521C702.566 366.865 702.275 365.944 702.275 364.758C702.275 363.638 702.591 362.726 703.224 362.023C703.862 361.315 704.652 360.961 705.594 360.961C706.536 360.961 707.265 361.266 707.78 361.875C708.296 362.485 708.554 363.331 708.554 364.414V365.018ZM707.373 364.041C707.368 363.375 707.206 362.857 706.888 362.487C706.573 362.117 706.135 361.932 705.573 361.932C705.029 361.932 704.567 362.126 704.188 362.515C703.808 362.904 703.573 363.413 703.484 364.041H707.373ZM716.091 365.018H711.008C711.027 365.82 711.242 366.439 711.655 366.875C712.067 367.31 712.634 367.528 713.356 367.528C714.167 367.528 714.912 367.261 715.592 366.727V367.81C714.959 368.269 714.123 368.499 713.082 368.499C712.065 368.499 711.266 368.173 710.684 367.521C710.103 366.865 709.812 365.944 709.812 364.758C709.812 363.638 710.129 362.726 710.762 362.023C711.399 361.315 712.189 360.961 713.131 360.961C714.073 360.961 714.802 361.266 715.318 361.875C715.834 362.485 716.091 363.331 716.091 364.414V365.018ZM714.91 364.041C714.905 363.375 714.744 362.857 714.425 362.487C714.111 362.117 713.673 361.932 713.11 361.932C712.566 361.932 712.105 362.126 711.725 362.515C711.345 362.904 711.111 363.413 711.022 364.041H714.91ZM723.819 368.33H722.666V364.224C722.666 362.696 722.108 361.932 720.992 361.932C720.416 361.932 719.938 362.15 719.558 362.585C719.183 363.017 718.995 363.563 718.995 364.224V368.33H717.842V361.13H718.995V362.325H719.023C719.567 361.416 720.355 360.961 721.386 360.961C722.173 360.961 722.776 361.217 723.193 361.728C723.61 362.234 723.819 362.968 723.819 363.928V368.33ZM729.514 368.07V366.832C730.142 367.296 730.834 367.528 731.588 367.528C732.601 367.528 733.107 367.191 733.107 366.516C733.107 366.324 733.062 366.162 732.973 366.031C732.889 365.895 732.772 365.775 732.622 365.672C732.477 365.569 732.303 365.478 732.102 365.398C731.905 365.314 731.691 365.227 731.462 365.138C731.143 365.011 730.862 364.885 730.618 364.758C730.379 364.627 730.177 364.482 730.013 364.322C729.854 364.158 729.732 363.973 729.648 363.767C729.568 363.56 729.528 363.319 729.528 363.043C729.528 362.705 729.605 362.407 729.76 362.15C729.915 361.887 730.121 361.669 730.379 361.496C730.637 361.318 730.93 361.184 731.258 361.095C731.591 361.006 731.933 360.961 732.284 360.961C732.908 360.961 733.466 361.069 733.958 361.285V362.452C733.428 362.105 732.819 361.932 732.13 361.932C731.914 361.932 731.72 361.957 731.546 362.009C731.373 362.056 731.223 362.124 731.096 362.213C730.974 362.302 730.878 362.41 730.808 362.536C730.742 362.658 730.709 362.794 730.709 362.944C730.709 363.132 730.742 363.289 730.808 363.415C730.878 363.542 730.979 363.654 731.11 363.753C731.241 363.851 731.401 363.94 731.588 364.02C731.776 364.1 731.989 364.186 732.228 364.28C732.547 364.402 732.833 364.528 733.086 364.66C733.339 364.786 733.555 364.932 733.733 365.096C733.911 365.255 734.047 365.44 734.141 365.651C734.239 365.862 734.288 366.113 734.288 366.403C734.288 366.76 734.209 367.069 734.049 367.332C733.895 367.594 733.686 367.812 733.423 367.985C733.161 368.159 732.859 368.288 732.516 368.372C732.174 368.457 731.816 368.499 731.441 368.499C730.7 368.499 730.058 368.356 729.514 368.07ZM742.044 368.33H740.891V364.182C740.891 362.682 740.333 361.932 739.217 361.932C738.655 361.932 738.181 362.15 737.797 362.585C737.412 363.017 737.22 363.572 737.22 364.252V368.33H736.067V357.671H737.22V362.325H737.248C737.802 361.416 738.589 360.961 739.611 360.961C741.233 360.961 742.044 361.939 742.044 363.893V368.33ZM749.377 368.33H748.224V367.205H748.196C747.695 368.068 746.956 368.499 745.981 368.499C745.264 368.499 744.702 368.309 744.294 367.929C743.891 367.55 743.689 367.046 743.689 366.418C743.689 365.072 744.481 364.289 746.066 364.069L748.224 363.767C748.224 362.543 747.73 361.932 746.741 361.932C745.873 361.932 745.091 362.227 744.392 362.818V361.636C745.1 361.186 745.916 360.961 746.839 360.961C748.531 360.961 749.377 361.857 749.377 363.647V368.33ZM748.224 364.688L746.487 364.927C745.953 365.002 745.55 365.135 745.278 365.328C745.006 365.515 744.87 365.85 744.87 366.333C744.87 366.685 744.995 366.973 745.243 367.198C745.496 367.418 745.831 367.528 746.248 367.528C746.82 367.528 747.291 367.329 747.662 366.931C748.037 366.528 748.224 366.019 748.224 365.405V364.688ZM755.305 362.297C755.103 362.143 754.812 362.065 754.433 362.065C753.941 362.065 753.528 362.297 753.195 362.761C752.867 363.225 752.703 363.858 752.703 364.66V368.33H751.55V361.13H752.703V362.614H752.731C752.895 362.107 753.146 361.714 753.484 361.432C753.821 361.146 754.198 361.003 754.616 361.003C754.916 361.003 755.145 361.036 755.305 361.102V362.297ZM762.343 365.018H757.259C757.278 365.82 757.494 366.439 757.906 366.875C758.319 367.31 758.886 367.528 759.608 367.528C760.419 367.528 761.164 367.261 761.844 366.727V367.81C761.211 368.269 760.374 368.499 759.334 368.499C758.316 368.499 757.517 368.173 756.936 367.521C756.355 366.865 756.064 365.944 756.064 364.758C756.064 363.638 756.38 362.726 757.013 362.023C757.651 361.315 758.441 360.961 759.383 360.961C760.325 360.961 761.054 361.266 761.57 361.875C762.085 362.485 762.343 363.331 762.343 364.414V365.018ZM761.162 364.041C761.157 363.375 760.995 362.857 760.677 362.487C760.363 362.117 759.924 361.932 759.362 361.932C758.818 361.932 758.356 362.126 757.977 362.515C757.597 362.904 757.363 363.413 757.273 364.041H761.162Z" fill="white"/>
</g>
<rect x="44.5" y="574.66" width="1190" height="43" rx="5" fill="black" fill-opacity="0.7"/>
<path d="M65.6547 603.66H64.0563L62.75 600.205H57.525L56.2961 603.66H54.6891L59.4156 591.337H60.9109L65.6547 603.66ZM62.2773 598.908L60.3438 593.657C60.2807 593.485 60.2177 593.21 60.1547 592.832H60.1203C60.063 593.182 59.9971 593.457 59.9227 593.657L58.0063 598.908H62.2773ZM74.7984 603.66H73.3891V602.165H73.3547C72.7016 603.299 71.6932 603.866 70.3297 603.866C69.224 603.866 68.3388 603.474 67.6742 602.689C67.0154 601.898 66.6859 600.824 66.6859 599.466C66.6859 598.011 67.0526 596.845 67.7859 595.969C68.5193 595.092 69.4961 594.654 70.7164 594.654C71.9253 594.654 72.8047 595.129 73.3547 596.08H73.3891V590.632H74.7984V603.66ZM73.3891 599.681V598.384C73.3891 597.673 73.1542 597.072 72.6844 596.579C72.2146 596.086 71.6188 595.84 70.8969 595.84C70.0375 595.84 69.3615 596.155 68.8688 596.785C68.376 597.415 68.1297 598.286 68.1297 599.398C68.1297 600.412 68.3646 601.214 68.8344 601.804C69.3099 602.388 69.9458 602.68 70.7422 602.68C71.5271 602.68 72.163 602.397 72.65 601.83C73.1427 601.262 73.3891 600.546 73.3891 599.681ZM84.5695 594.86L81.0633 603.66H79.6797L76.3453 594.86H77.8922L80.1266 601.254C80.2927 601.724 80.3958 602.133 80.4359 602.483H80.4703C80.5276 602.042 80.6193 601.643 80.7453 601.288L83.0828 594.86H84.5695ZM92.3898 603.66H90.9805V602.285H90.9461C90.3331 603.339 89.4307 603.866 88.2391 603.866C87.3625 603.866 86.675 603.634 86.1766 603.17C85.6839 602.706 85.4375 602.09 85.4375 601.323C85.4375 599.678 86.4057 598.722 88.3422 598.452L90.9805 598.083C90.9805 596.587 90.376 595.84 89.1672 595.84C88.1073 595.84 87.1505 596.201 86.2969 596.923V595.479C87.162 594.929 88.1589 594.654 89.2875 594.654C91.3557 594.654 92.3898 595.748 92.3898 597.937V603.66ZM90.9805 599.209L88.8578 599.501C88.2047 599.592 87.712 599.756 87.3797 599.991C87.0474 600.22 86.8813 600.629 86.8813 601.22C86.8813 601.649 87.0331 602.002 87.3367 602.277C87.6461 602.546 88.0557 602.68 88.5656 602.68C89.2646 602.68 89.8404 602.437 90.293 601.95C90.7513 601.457 90.9805 600.836 90.9805 600.085V599.209ZM102.35 603.66H100.941V598.641C100.941 596.774 100.259 595.84 98.8953 595.84C98.1906 595.84 97.6063 596.106 97.1422 596.639C96.6839 597.166 96.4547 597.834 96.4547 598.641V603.66H95.0453V594.86H96.4547V596.321H96.4891C97.1536 595.21 98.1161 594.654 99.3766 594.654C100.339 594.654 101.075 594.966 101.585 595.591C102.095 596.209 102.35 597.106 102.35 598.28V603.66ZM111.013 603.256C110.336 603.663 109.534 603.866 108.606 603.866C107.352 603.866 106.338 603.46 105.564 602.646C104.796 601.827 104.413 600.767 104.413 599.466C104.413 598.017 104.828 596.854 105.659 595.977C106.489 595.095 107.598 594.654 108.984 594.654C109.758 594.654 110.44 594.797 111.03 595.084V596.527C110.377 596.069 109.678 595.84 108.933 595.84C108.033 595.84 107.294 596.164 106.716 596.811C106.143 597.453 105.856 598.298 105.856 599.346C105.856 600.377 106.126 601.191 106.664 601.787C107.208 602.383 107.936 602.68 108.847 602.68C109.615 602.68 110.336 602.426 111.013 601.916V603.256ZM120.216 599.612H114.003C114.026 600.592 114.29 601.348 114.794 601.881C115.298 602.414 115.991 602.68 116.873 602.68C117.865 602.68 118.776 602.354 119.606 601.701V603.024C118.833 603.586 117.81 603.866 116.538 603.866C115.295 603.866 114.318 603.468 113.608 602.672C112.897 601.87 112.542 600.744 112.542 599.295C112.542 597.925 112.929 596.811 113.702 595.952C114.482 595.086 115.447 594.654 116.598 594.654C117.75 594.654 118.641 595.026 119.271 595.771C119.901 596.516 120.216 597.55 120.216 598.873V599.612ZM118.773 598.418C118.767 597.604 118.569 596.971 118.18 596.519C117.796 596.066 117.26 595.84 116.573 595.84C115.908 595.84 115.344 596.078 114.88 596.553C114.416 597.029 114.129 597.65 114.02 598.418H118.773ZM129.867 603.66H128.458V602.165H128.423C127.77 603.299 126.762 603.866 125.398 603.866C124.293 603.866 123.408 603.474 122.743 602.689C122.084 601.898 121.755 600.824 121.755 599.466C121.755 598.011 122.121 596.845 122.855 595.969C123.588 595.092 124.565 594.654 125.785 594.654C126.994 594.654 127.873 595.129 128.423 596.08H128.458V590.632H129.867V603.66ZM128.458 599.681V598.384C128.458 597.673 128.223 597.072 127.753 596.579C127.283 596.086 126.688 595.84 125.966 595.84C125.106 595.84 124.43 596.155 123.938 596.785C123.445 597.415 123.198 598.286 123.198 599.398C123.198 600.412 123.433 601.214 123.903 601.804C124.379 602.388 125.015 602.68 125.811 602.68C126.596 602.68 127.232 602.397 127.719 601.83C128.211 601.262 128.458 600.546 128.458 599.681ZM146.573 603.66H144.855L142.792 600.205C142.603 599.885 142.42 599.612 142.242 599.389C142.065 599.16 141.881 598.974 141.692 598.83C141.509 598.687 141.308 598.584 141.091 598.521C140.879 598.452 140.638 598.418 140.369 598.418H139.183V603.66H137.739V591.337H141.417C141.956 591.337 142.451 591.405 142.904 591.543C143.362 591.675 143.758 591.878 144.09 592.153C144.428 592.428 144.691 592.772 144.88 593.184C145.07 593.591 145.164 594.07 145.164 594.62C145.164 595.049 145.098 595.445 144.966 595.805C144.84 596.161 144.657 596.479 144.416 596.759C144.182 597.04 143.895 597.281 143.557 597.481C143.225 597.676 142.849 597.828 142.431 597.937V597.971C142.637 598.063 142.815 598.169 142.964 598.289C143.119 598.404 143.265 598.541 143.402 598.702C143.54 598.862 143.674 599.045 143.806 599.252C143.944 599.452 144.096 599.687 144.262 599.956L146.573 603.66ZM139.183 592.643V597.112H141.142C141.503 597.112 141.835 597.057 142.139 596.948C142.448 596.84 142.715 596.685 142.938 596.484C143.162 596.278 143.336 596.029 143.462 595.737C143.589 595.439 143.652 595.107 143.652 594.74C143.652 594.081 143.437 593.568 143.007 593.202C142.583 592.829 141.967 592.643 141.159 592.643H139.183ZM154.643 599.612H148.43C148.453 600.592 148.716 601.348 149.22 601.881C149.724 602.414 150.418 602.68 151.3 602.68C152.291 602.68 153.202 602.354 154.033 601.701V603.024C153.259 603.586 152.237 603.866 150.965 603.866C149.722 603.866 148.745 603.468 148.034 602.672C147.324 601.87 146.969 600.744 146.969 599.295C146.969 597.925 147.355 596.811 148.129 595.952C148.908 595.086 149.873 594.654 151.025 594.654C152.177 594.654 153.067 595.026 153.698 595.771C154.328 596.516 154.643 597.55 154.643 598.873V599.612ZM153.199 598.418C153.193 597.604 152.996 596.971 152.606 596.519C152.222 596.066 151.687 595.84 150.999 595.84C150.335 595.84 149.77 596.078 149.306 596.553C148.842 597.029 148.556 597.65 148.447 598.418H153.199ZM163.082 603.66H161.673V602.285H161.638C161.025 603.339 160.123 603.866 158.931 603.866C158.055 603.866 157.367 603.634 156.869 603.17C156.376 602.706 156.13 602.09 156.13 601.323C156.13 599.678 157.098 598.722 159.034 598.452L161.673 598.083C161.673 596.587 161.068 595.84 159.859 595.84C158.799 595.84 157.843 596.201 156.989 596.923V595.479C157.854 594.929 158.851 594.654 159.98 594.654C162.048 594.654 163.082 595.748 163.082 597.937V603.66ZM161.673 599.209L159.55 599.501C158.897 599.592 158.404 599.756 158.072 599.991C157.74 600.22 157.573 600.629 157.573 601.22C157.573 601.649 157.725 602.002 158.029 602.277C158.338 602.546 158.748 602.68 159.258 602.68C159.957 602.68 160.533 602.437 160.985 601.95C161.443 601.457 161.673 600.836 161.673 600.085V599.209ZM171.736 603.256C171.06 603.663 170.258 603.866 169.33 603.866C168.075 603.866 167.061 603.46 166.288 602.646C165.52 601.827 165.136 600.767 165.136 599.466C165.136 598.017 165.551 596.854 166.382 595.977C167.213 595.095 168.321 594.654 169.708 594.654C170.481 594.654 171.163 594.797 171.753 595.084V596.527C171.1 596.069 170.401 595.84 169.656 595.84C168.757 595.84 168.018 596.164 167.439 596.811C166.866 597.453 166.58 598.298 166.58 599.346C166.58 600.377 166.849 601.191 167.388 601.787C167.932 602.383 168.659 602.68 169.57 602.68C170.338 602.68 171.06 602.426 171.736 601.916V603.256ZM177.949 603.574C177.617 603.758 177.179 603.849 176.634 603.849C175.093 603.849 174.323 602.99 174.323 601.271V596.063H172.81V594.86H174.323V592.712L175.732 592.256V594.86H177.949V596.063H175.732V601.022C175.732 601.612 175.832 602.033 176.033 602.285C176.233 602.537 176.566 602.663 177.03 602.663C177.385 602.663 177.691 602.566 177.949 602.371V603.574ZM186.294 599.002V603.66H184.85V591.337H188.236C189.554 591.337 190.573 591.658 191.295 592.299C192.023 592.941 192.387 593.846 192.387 595.015C192.387 596.184 191.983 597.14 191.175 597.885C190.373 598.63 189.287 599.002 187.918 599.002H186.294ZM186.294 592.643V597.696H187.806C188.803 597.696 189.562 597.47 190.084 597.017C190.611 596.559 190.874 595.914 190.874 595.084C190.874 593.457 189.912 592.643 187.987 592.643H186.294ZM200.224 603.66H198.815V602.285H198.78C198.167 603.339 197.265 603.866 196.073 603.866C195.197 603.866 194.509 603.634 194.011 603.17C193.518 602.706 193.272 602.09 193.272 601.323C193.272 599.678 194.24 598.722 196.177 598.452L198.815 598.083C198.815 596.587 198.21 595.84 197.002 595.84C195.942 595.84 194.985 596.201 194.131 596.923V595.479C194.996 594.929 195.993 594.654 197.122 594.654C199.19 594.654 200.224 595.748 200.224 597.937V603.66ZM198.815 599.209L196.692 599.501C196.039 599.592 195.546 599.756 195.214 599.991C194.882 600.22 194.716 600.629 194.716 601.22C194.716 601.649 194.867 602.002 195.171 602.277C195.48 602.546 195.89 602.68 196.4 602.68C197.099 602.68 197.675 602.437 198.127 601.95C198.586 601.457 198.815 600.836 198.815 600.085V599.209ZM206.962 603.574C206.629 603.758 206.191 603.849 205.647 603.849C204.106 603.849 203.335 602.99 203.335 601.271V596.063H201.823V594.86H203.335V592.712L204.745 592.256V594.86H206.962V596.063H204.745V601.022C204.745 601.612 204.845 602.033 205.045 602.285C205.246 602.537 205.578 602.663 206.042 602.663C206.397 602.663 206.704 602.566 206.962 602.371V603.574ZM212.926 603.574C212.593 603.758 212.155 603.849 211.611 603.849C210.07 603.849 209.299 602.99 209.299 601.271V596.063H207.787V594.86H209.299V592.712L210.709 592.256V594.86H212.926V596.063H210.709V601.022C210.709 601.612 210.809 602.033 211.009 602.285C211.21 602.537 211.542 602.663 212.006 602.663C212.361 602.663 212.668 602.566 212.926 602.371V603.574ZM221.88 599.612H215.667C215.69 600.592 215.954 601.348 216.458 601.881C216.962 602.414 217.655 602.68 218.538 602.68C219.529 602.68 220.44 602.354 221.27 601.701V603.024C220.497 603.586 219.474 603.866 218.202 603.866C216.959 603.866 215.982 603.468 215.272 602.672C214.561 601.87 214.206 600.744 214.206 599.295C214.206 597.925 214.593 596.811 215.366 595.952C216.146 595.086 217.111 594.654 218.263 594.654C219.414 594.654 220.305 595.026 220.935 595.771C221.565 596.516 221.88 597.55 221.88 598.873V599.612ZM220.437 598.418C220.431 597.604 220.233 596.971 219.844 596.519C219.46 596.066 218.924 595.84 218.237 595.84C217.572 595.84 217.008 596.078 216.544 596.553C216.08 597.029 215.793 597.65 215.684 598.418H220.437ZM228.609 596.287C228.363 596.098 228.008 596.003 227.544 596.003C226.942 596.003 226.438 596.287 226.031 596.854C225.63 597.421 225.43 598.195 225.43 599.174V603.66H224.02V594.86H225.43V596.673H225.464C225.665 596.055 225.971 595.573 226.384 595.23C226.796 594.88 227.257 594.705 227.767 594.705C228.134 594.705 228.415 594.746 228.609 594.826V596.287ZM237.444 603.66H236.034V598.641C236.034 596.774 235.353 595.84 233.989 595.84C233.284 595.84 232.7 596.106 232.236 596.639C231.778 597.166 231.548 597.834 231.548 598.641V603.66H230.139V594.86H231.548V596.321H231.583C232.247 595.21 233.21 594.654 234.47 594.654C235.433 594.654 236.169 594.966 236.679 595.591C237.189 596.209 237.444 597.106 237.444 598.28V603.66ZM239.575 603.342V601.83C240.343 602.397 241.188 602.68 242.11 602.68C243.348 602.68 243.966 602.268 243.966 601.443C243.966 601.208 243.912 601.01 243.803 600.85C243.7 600.684 243.557 600.538 243.373 600.412C243.196 600.286 242.984 600.174 242.738 600.077C242.497 599.973 242.236 599.867 241.955 599.759C241.566 599.604 241.222 599.449 240.924 599.295C240.632 599.134 240.386 598.957 240.185 598.762C239.99 598.561 239.841 598.335 239.738 598.083C239.641 597.831 239.592 597.536 239.592 597.198C239.592 596.785 239.687 596.421 239.876 596.106C240.065 595.785 240.317 595.519 240.632 595.307C240.947 595.089 241.305 594.926 241.706 594.817C242.113 594.708 242.531 594.654 242.961 594.654C243.723 594.654 244.405 594.786 245.006 595.049V596.476C244.359 596.052 243.614 595.84 242.772 595.84C242.508 595.84 242.271 595.871 242.059 595.934C241.847 595.992 241.663 596.075 241.509 596.184C241.36 596.292 241.242 596.424 241.156 596.579C241.076 596.728 241.036 596.894 241.036 597.077C241.036 597.307 241.076 597.498 241.156 597.653C241.242 597.808 241.365 597.945 241.526 598.066C241.686 598.186 241.881 598.295 242.11 598.392C242.339 598.49 242.6 598.596 242.892 598.71C243.282 598.859 243.631 599.014 243.941 599.174C244.25 599.329 244.514 599.507 244.731 599.707C244.949 599.902 245.115 600.128 245.23 600.386C245.35 600.644 245.41 600.95 245.41 601.305C245.41 601.741 245.313 602.119 245.118 602.44C244.929 602.761 244.674 603.027 244.353 603.239C244.032 603.451 243.663 603.609 243.245 603.712C242.826 603.815 242.388 603.866 241.93 603.866C241.024 603.866 240.24 603.692 239.575 603.342ZM248.074 596.579C247.811 596.579 247.584 596.484 247.395 596.295C247.212 596.106 247.12 595.88 247.12 595.616C247.12 595.353 247.212 595.129 247.395 594.946C247.584 594.763 247.811 594.671 248.074 594.671C248.343 594.671 248.573 594.763 248.762 594.946C248.951 595.129 249.045 595.353 249.045 595.616C249.045 595.88 248.951 596.106 248.762 596.295C248.573 596.484 248.343 596.579 248.074 596.579ZM248.074 603.849C247.811 603.849 247.584 603.755 247.395 603.566C247.212 603.377 247.12 603.15 247.12 602.887C247.12 602.623 247.212 602.397 247.395 602.208C247.584 602.013 247.811 601.916 248.074 601.916C248.343 601.916 248.573 602.013 248.762 602.208C248.951 602.397 249.045 602.623 249.045 602.887C249.045 603.15 248.951 603.377 248.762 603.566C248.573 603.755 248.343 603.849 248.074 603.849ZM265.683 603.66H264.239V598.04H257.863V603.66H256.419V591.337H257.863V596.742H264.239V591.337H265.683V603.66ZM269.447 592.626C269.195 592.626 268.98 592.54 268.802 592.368C268.625 592.196 268.536 591.978 268.536 591.715C268.536 591.451 268.625 591.234 268.802 591.062C268.98 590.884 269.195 590.795 269.447 590.795C269.705 590.795 269.922 590.884 270.1 591.062C270.283 591.234 270.375 591.451 270.375 591.715C270.375 591.967 270.283 592.182 270.1 592.359C269.922 592.537 269.705 592.626 269.447 592.626ZM270.134 603.66H268.725V594.86H270.134V603.66ZM280.498 602.955C280.498 606.187 278.952 607.802 275.858 607.802C274.769 607.802 273.818 607.596 273.005 607.184V605.774C273.996 606.324 274.941 606.599 275.841 606.599C278.006 606.599 279.089 605.448 279.089 603.145V602.182H279.055C278.384 603.305 277.376 603.866 276.03 603.866C274.935 603.866 274.053 603.477 273.383 602.698C272.718 601.913 272.386 600.861 272.386 599.544C272.386 598.048 272.744 596.86 273.46 595.977C274.182 595.095 275.167 594.654 276.416 594.654C277.602 594.654 278.482 595.129 279.055 596.08H279.089V594.86H280.498V602.955ZM279.089 599.681V598.384C279.089 597.685 278.851 597.086 278.376 596.587C277.906 596.089 277.319 595.84 276.614 595.84C275.743 595.84 275.061 596.158 274.569 596.794C274.076 597.424 273.83 598.309 273.83 599.449C273.83 600.429 274.065 601.214 274.534 601.804C275.01 602.388 275.637 602.68 276.416 602.68C277.207 602.68 277.849 602.4 278.341 601.838C278.84 601.277 279.089 600.558 279.089 599.681ZM290.656 603.66H289.247V598.59C289.247 596.757 288.565 595.84 287.202 595.84C286.514 595.84 285.935 596.106 285.466 596.639C284.996 597.166 284.761 597.845 284.761 598.676V603.66H283.352V590.632H284.761V596.321H284.795C285.471 595.21 286.434 594.654 287.683 594.654C289.665 594.654 290.656 595.848 290.656 598.237V603.66ZM300.393 599.612H294.18C294.203 600.592 294.466 601.348 294.97 601.881C295.474 602.414 296.168 602.68 297.05 602.68C298.041 602.68 298.952 602.354 299.783 601.701V603.024C299.009 603.586 297.987 603.866 296.715 603.866C295.472 603.866 294.495 603.468 293.784 602.672C293.074 601.87 292.719 600.744 292.719 599.295C292.719 597.925 293.105 596.811 293.879 595.952C294.658 595.086 295.623 594.654 296.775 594.654C297.927 594.654 298.817 595.026 299.448 595.771C300.078 596.516 300.393 597.55 300.393 598.873V599.612ZM298.949 598.418C298.943 597.604 298.746 596.971 298.356 596.519C297.972 596.066 297.437 595.84 296.749 595.84C296.085 595.84 295.52 596.078 295.056 596.553C294.592 597.029 294.306 597.65 294.197 598.418H298.949ZM307.122 596.287C306.876 596.098 306.52 596.003 306.056 596.003C305.455 596.003 304.951 596.287 304.544 596.854C304.143 597.421 303.942 598.195 303.942 599.174V603.66H302.533V594.86H303.942V596.673H303.977C304.177 596.055 304.484 595.573 304.896 595.23C305.309 594.88 305.77 594.705 306.28 594.705C306.646 594.705 306.927 594.746 307.122 594.826V596.287ZM313.155 599.312H308.463V598.203H313.155V599.312ZM320.855 603.866C319.107 603.866 317.707 603.291 316.652 602.139C315.604 600.987 315.08 599.489 315.08 597.645C315.08 595.662 315.615 594.081 316.687 592.901C317.758 591.721 319.216 591.13 321.061 591.13C322.763 591.13 324.132 591.703 325.169 592.849C326.211 593.995 326.733 595.493 326.733 597.344C326.733 599.355 326.2 600.945 325.134 602.113C324.069 603.282 322.642 603.866 320.855 603.866ZM320.958 592.437C319.663 592.437 318.612 592.904 317.804 593.837C316.996 594.771 316.592 595.997 316.592 597.516C316.592 599.034 316.985 600.257 317.77 601.185C318.56 602.108 319.589 602.569 320.855 602.569C322.207 602.569 323.272 602.128 324.052 601.245C324.831 600.363 325.22 599.128 325.22 597.541C325.22 595.914 324.842 594.657 324.086 593.769C323.33 592.881 322.287 592.437 320.958 592.437ZM333.556 596.287C333.31 596.098 332.955 596.003 332.491 596.003C331.889 596.003 331.385 596.287 330.978 596.854C330.577 597.421 330.377 598.195 330.377 599.174V603.66H328.967V594.86H330.377V596.673H330.411C330.611 596.055 330.918 595.573 331.33 595.23C331.743 594.88 332.204 594.705 332.714 594.705C333.081 594.705 333.361 594.746 333.556 594.826V596.287ZM342.597 603.66H341.188V602.165H341.153C340.5 603.299 339.492 603.866 338.128 603.866C337.022 603.866 336.137 603.474 335.473 602.689C334.814 601.898 334.484 600.824 334.484 599.466C334.484 598.011 334.851 596.845 335.584 595.969C336.318 595.092 337.295 594.654 338.515 594.654C339.724 594.654 340.603 595.129 341.153 596.08H341.188V590.632H342.597V603.66ZM341.188 599.681V598.384C341.188 597.673 340.953 597.072 340.483 596.579C340.013 596.086 339.417 595.84 338.695 595.84C337.836 595.84 337.16 596.155 336.667 596.785C336.174 597.415 335.928 598.286 335.928 599.398C335.928 600.412 336.163 601.214 336.633 601.804C337.108 602.388 337.744 602.68 338.541 602.68C339.326 602.68 339.961 602.397 340.448 601.83C340.941 601.262 341.188 600.546 341.188 599.681ZM352.523 599.612H346.309C346.332 600.592 346.596 601.348 347.1 601.881C347.604 602.414 348.297 602.68 349.18 602.68C350.171 602.68 351.082 602.354 351.913 601.701V603.024C351.139 603.586 350.116 603.866 348.845 603.866C347.601 603.866 346.624 603.468 345.914 602.672C345.204 601.87 344.848 600.744 344.848 599.295C344.848 597.925 345.235 596.811 346.009 595.952C346.788 595.086 347.753 594.654 348.905 594.654C350.056 594.654 350.947 595.026 351.577 595.771C352.208 596.516 352.523 597.55 352.523 598.873V599.612ZM351.079 598.418C351.073 597.604 350.876 596.971 350.486 596.519C350.102 596.066 349.566 595.84 348.879 595.84C348.214 595.84 347.65 596.078 347.186 596.553C346.722 597.029 346.435 597.65 346.327 598.418H351.079ZM359.252 596.287C359.005 596.098 358.65 596.003 358.186 596.003C357.584 596.003 357.08 596.287 356.673 596.854C356.272 597.421 356.072 598.195 356.072 599.174V603.66H354.662V594.86H356.072V596.673H356.106C356.307 596.055 356.613 595.573 357.026 595.23C357.438 594.88 357.899 594.705 358.409 594.705C358.776 594.705 359.057 594.746 359.252 594.826V596.287ZM374.188 603.145C373.277 603.626 372.142 603.866 370.784 603.866C369.031 603.866 367.628 603.302 366.573 602.173C365.519 601.045 364.992 599.564 364.992 597.73C364.992 595.76 365.585 594.167 366.771 592.952C367.957 591.738 369.461 591.13 371.283 591.13C372.452 591.13 373.42 591.299 374.188 591.637V593.176C373.305 592.683 372.331 592.437 371.266 592.437C369.851 592.437 368.702 592.909 367.82 593.855C366.943 594.8 366.505 596.063 366.505 597.645C366.505 599.146 366.914 600.343 367.734 601.237C368.559 602.125 369.639 602.569 370.973 602.569C372.211 602.569 373.282 602.294 374.188 601.744V603.145ZM380.186 603.866C378.885 603.866 377.846 603.457 377.066 602.637C376.293 601.812 375.906 600.721 375.906 599.363C375.906 597.885 376.31 596.731 377.118 595.9C377.926 595.069 379.017 594.654 380.392 594.654C381.704 594.654 382.727 595.058 383.46 595.866C384.199 596.673 384.569 597.793 384.569 599.226C384.569 600.629 384.171 601.755 383.374 602.603C382.584 603.445 381.521 603.866 380.186 603.866ZM380.289 595.84C379.384 595.84 378.668 596.149 378.141 596.768C377.614 597.381 377.35 598.229 377.35 599.312C377.35 600.354 377.616 601.177 378.149 601.778C378.682 602.38 379.395 602.68 380.289 602.68C381.2 602.68 381.899 602.385 382.386 601.795C382.879 601.205 383.125 600.366 383.125 599.277C383.125 598.177 382.879 597.329 382.386 596.734C381.899 596.138 381.2 595.84 380.289 595.84ZM399.316 603.66H397.906V598.607C397.906 597.633 397.754 596.928 397.451 596.493C397.153 596.058 396.649 595.84 395.938 595.84C395.337 595.84 394.824 596.115 394.4 596.665C393.982 597.215 393.773 597.874 393.773 598.641V603.66H392.363V598.435C392.363 596.705 391.696 595.84 390.361 595.84C389.742 595.84 389.232 596.101 388.831 596.622C388.43 597.137 388.23 597.811 388.23 598.641V603.66H386.82V594.86H388.23V596.252H388.264C388.889 595.187 389.799 594.654 390.997 594.654C391.598 594.654 392.123 594.823 392.57 595.161C393.016 595.493 393.323 595.932 393.489 596.476C394.142 595.261 395.116 594.654 396.411 594.654C398.347 594.654 399.316 595.848 399.316 598.237V603.66ZM403.423 602.388H403.389V607.708H401.98V594.86H403.389V596.407H403.423C404.117 595.238 405.131 594.654 406.466 594.654C407.6 594.654 408.485 595.049 409.121 595.84C409.757 596.625 410.075 597.679 410.075 599.002C410.075 600.475 409.717 601.655 409.001 602.543C408.285 603.425 407.305 603.866 406.062 603.866C404.922 603.866 404.042 603.374 403.423 602.388ZM403.389 598.839V600.068C403.389 600.796 403.624 601.414 404.094 601.924C404.569 602.428 405.171 602.68 405.898 602.68C406.752 602.68 407.42 602.354 407.901 601.701C408.388 601.048 408.631 600.14 408.631 598.977C408.631 597.997 408.405 597.229 407.952 596.673C407.5 596.118 406.887 595.84 406.113 595.84C405.294 595.84 404.635 596.126 404.137 596.699C403.638 597.266 403.389 597.98 403.389 598.839ZM416.005 603.866C414.704 603.866 413.664 603.457 412.885 602.637C412.112 601.812 411.725 600.721 411.725 599.363C411.725 597.885 412.129 596.731 412.937 595.9C413.745 595.069 414.836 594.654 416.211 594.654C417.523 594.654 418.546 595.058 419.279 595.866C420.018 596.673 420.387 597.793 420.387 599.226C420.387 600.629 419.989 601.755 419.193 602.603C418.402 603.445 417.34 603.866 416.005 603.866ZM416.108 595.84C415.203 595.84 414.486 596.149 413.959 596.768C413.432 597.381 413.169 598.229 413.169 599.312C413.169 600.354 413.435 601.177 413.968 601.778C414.501 602.38 415.214 602.68 416.108 602.68C417.019 602.68 417.718 602.385 418.205 601.795C418.697 601.205 418.944 600.366 418.944 599.277C418.944 598.177 418.697 597.329 418.205 596.734C417.718 596.138 417.019 595.84 416.108 595.84ZM429.944 603.66H428.534V598.641C428.534 596.774 427.853 595.84 426.489 595.84C425.784 595.84 425.2 596.106 424.736 596.639C424.278 597.166 424.048 597.834 424.048 598.641V603.66H422.639V594.86H424.048V596.321H424.083C424.747 595.21 425.71 594.654 426.97 594.654C427.933 594.654 428.669 594.966 429.179 595.591C429.689 596.209 429.944 597.106 429.944 598.28V603.66ZM439.68 599.612H433.467C433.49 600.592 433.754 601.348 434.258 601.881C434.762 602.414 435.455 602.68 436.337 602.68C437.329 602.68 438.24 602.354 439.07 601.701V603.024C438.297 603.586 437.274 603.866 436.002 603.866C434.759 603.866 433.782 603.468 433.072 602.672C432.361 601.87 432.006 600.744 432.006 599.295C432.006 597.925 432.393 596.811 433.166 595.952C433.946 595.086 434.911 594.654 436.062 594.654C437.214 594.654 438.105 595.026 438.735 595.771C439.365 596.516 439.68 597.55 439.68 598.873V599.612ZM438.237 598.418C438.231 597.604 438.033 596.971 437.644 596.519C437.26 596.066 436.724 595.84 436.037 595.84C435.372 595.84 434.808 596.078 434.344 596.553C433.88 597.029 433.593 597.65 433.484 598.418H438.237ZM449.125 603.66H447.716V598.641C447.716 596.774 447.034 595.84 445.67 595.84C444.966 595.84 444.381 596.106 443.917 596.639C443.459 597.166 443.23 597.834 443.23 598.641V603.66H441.82V594.86H443.23V596.321H443.264C443.929 595.21 444.891 594.654 446.152 594.654C447.114 594.654 447.85 594.966 448.36 595.591C448.87 596.209 449.125 597.106 449.125 598.28V603.66ZM455.871 603.574C455.539 603.758 455.101 603.849 454.556 603.849C453.015 603.849 452.245 602.99 452.245 601.271V596.063H450.732V594.86H452.245V592.712L453.654 592.256V594.86H455.871V596.063H453.654V601.022C453.654 601.612 453.754 602.033 453.955 602.285C454.155 602.537 454.488 602.663 454.952 602.663C455.307 602.663 455.613 602.566 455.871 602.371V603.574ZM457.22 603.342V601.83C457.988 602.397 458.833 602.68 459.755 602.68C460.993 602.68 461.612 602.268 461.612 601.443C461.612 601.208 461.557 601.01 461.448 600.85C461.345 600.684 461.202 600.538 461.019 600.412C460.841 600.286 460.629 600.174 460.383 600.077C460.142 599.973 459.882 599.867 459.601 599.759C459.211 599.604 458.867 599.449 458.57 599.295C458.277 599.134 458.031 598.957 457.83 598.762C457.636 598.561 457.487 598.335 457.384 598.083C457.286 597.831 457.238 597.536 457.238 597.198C457.238 596.785 457.332 596.421 457.521 596.106C457.71 595.785 457.962 595.519 458.277 595.307C458.592 595.089 458.951 594.926 459.352 594.817C459.758 594.708 460.177 594.654 460.606 594.654C461.368 594.654 462.05 594.786 462.652 595.049V596.476C462.004 596.052 461.259 595.84 460.417 595.84C460.154 595.84 459.916 595.871 459.704 595.934C459.492 595.992 459.309 596.075 459.154 596.184C459.005 596.292 458.888 596.424 458.802 596.579C458.721 596.728 458.681 596.894 458.681 597.077C458.681 597.307 458.721 597.498 458.802 597.653C458.888 597.808 459.011 597.945 459.171 598.066C459.332 598.186 459.526 598.295 459.755 598.392C459.985 598.49 460.245 598.596 460.538 598.71C460.927 598.859 461.277 599.014 461.586 599.174C461.895 599.329 462.159 599.507 462.377 599.707C462.594 599.902 462.76 600.128 462.875 600.386C462.995 600.644 463.055 600.95 463.055 601.305C463.055 601.741 462.958 602.119 462.763 602.44C462.574 602.761 462.319 603.027 461.998 603.239C461.678 603.451 461.308 603.609 460.89 603.712C460.472 603.815 460.033 603.866 459.575 603.866C458.67 603.866 457.885 603.692 457.22 603.342Z" fill="white"/>
<path d="M1117.69 600.171C1117.69 600.727 1117.58 601.234 1117.37 601.692C1117.17 602.145 1116.87 602.534 1116.49 602.861C1116.11 603.182 1115.65 603.431 1115.12 603.609C1114.59 603.786 1114 603.875 1113.36 603.875C1112.18 603.875 1111.25 603.652 1110.56 603.205V601.692C1111.39 602.345 1112.34 602.672 1113.41 602.672C1113.84 602.672 1114.23 602.617 1114.57 602.509C1114.92 602.4 1115.22 602.242 1115.46 602.036C1115.72 601.83 1115.91 601.58 1116.04 601.288C1116.18 600.996 1116.25 600.667 1116.25 600.3C1116.25 598.69 1115.1 597.885 1112.81 597.885H1111.79V596.691H1112.76C1114.79 596.691 1115.8 595.934 1115.8 594.422C1115.8 593.024 1115.03 592.325 1113.48 592.325C1112.61 592.325 1111.79 592.617 1111.03 593.202V591.835C1111.81 591.365 1112.75 591.13 1113.83 591.13C1114.35 591.13 1114.81 591.202 1115.23 591.345C1115.65 591.489 1116.01 591.689 1116.31 591.947C1116.6 592.205 1116.83 592.514 1116.99 592.875C1117.16 593.236 1117.24 593.634 1117.24 594.07C1117.24 595.691 1116.42 596.734 1114.79 597.198V597.232C1115.2 597.278 1115.59 597.381 1115.95 597.541C1116.3 597.696 1116.61 597.899 1116.86 598.152C1117.12 598.404 1117.32 598.702 1117.47 599.045C1117.62 599.383 1117.69 599.759 1117.69 600.171ZM1125.62 594.568C1125.62 594.19 1125.56 593.86 1125.44 593.58C1125.33 593.299 1125.17 593.067 1124.96 592.884C1124.76 592.695 1124.52 592.554 1124.25 592.462C1123.97 592.371 1123.67 592.325 1123.35 592.325C1123.08 592.325 1122.81 592.362 1122.55 592.437C1122.28 592.511 1122.02 592.614 1121.77 592.746C1121.53 592.878 1121.28 593.035 1121.05 593.219C1120.82 593.402 1120.61 593.605 1120.41 593.829V592.316C1120.8 591.933 1121.24 591.64 1121.73 591.44C1122.22 591.234 1122.82 591.13 1123.53 591.13C1124.03 591.13 1124.5 591.205 1124.93 591.354C1125.36 591.497 1125.73 591.709 1126.04 591.99C1126.36 592.271 1126.6 592.617 1126.78 593.03C1126.97 593.442 1127.06 593.915 1127.06 594.448C1127.06 594.935 1127 595.376 1126.89 595.771C1126.78 596.166 1126.61 596.539 1126.38 596.888C1126.15 597.238 1125.87 597.573 1125.53 597.894C1125.18 598.215 1124.78 598.541 1124.32 598.873C1123.74 599.286 1123.26 599.638 1122.88 599.93C1122.51 600.223 1122.21 600.498 1121.99 600.755C1121.77 601.008 1121.61 601.262 1121.52 601.52C1121.44 601.772 1121.39 602.065 1121.39 602.397H1127.53V603.66H1119.92V603.05C1119.92 602.523 1119.98 602.059 1120.1 601.658C1120.21 601.257 1120.4 600.876 1120.66 600.515C1120.93 600.154 1121.27 599.793 1121.69 599.432C1122.12 599.071 1122.65 598.664 1123.27 598.212C1123.71 597.891 1124.09 597.584 1124.38 597.292C1124.69 597 1124.93 596.708 1125.11 596.416C1125.3 596.123 1125.43 595.828 1125.5 595.53C1125.58 595.227 1125.62 594.906 1125.62 594.568ZM1136.18 602.388H1136.14V607.708H1134.73V594.86H1136.14V596.407H1136.18C1136.87 595.238 1137.88 594.654 1139.22 594.654C1140.35 594.654 1141.24 595.049 1141.87 595.84C1142.51 596.625 1142.83 597.679 1142.83 599.002C1142.83 600.475 1142.47 601.655 1141.75 602.543C1141.04 603.425 1140.06 603.866 1138.81 603.866C1137.67 603.866 1136.79 603.374 1136.18 602.388ZM1136.14 598.839V600.068C1136.14 600.796 1136.38 601.414 1136.85 601.924C1137.32 602.428 1137.92 602.68 1138.65 602.68C1139.5 602.68 1140.17 602.354 1140.65 601.701C1141.14 601.048 1141.38 600.14 1141.38 598.977C1141.38 597.997 1141.16 597.229 1140.7 596.673C1140.25 596.118 1139.64 595.84 1138.86 595.84C1138.05 595.84 1137.39 596.126 1136.89 596.699C1136.39 597.266 1136.14 597.98 1136.14 598.839ZM1151.38 603.66H1149.97V602.285H1149.93C1149.32 603.339 1148.42 603.866 1147.23 603.866C1146.35 603.866 1145.66 603.634 1145.16 603.17C1144.67 602.706 1144.42 602.09 1144.42 601.323C1144.42 599.678 1145.39 598.722 1147.33 598.452L1149.97 598.083C1149.97 596.587 1149.36 595.84 1148.15 595.84C1147.09 595.84 1146.14 596.201 1145.28 596.923V595.479C1146.15 594.929 1147.15 594.654 1148.27 594.654C1150.34 594.654 1151.38 595.748 1151.38 597.937V603.66ZM1149.97 599.209L1147.85 599.501C1147.19 599.592 1146.7 599.756 1146.37 599.991C1146.03 600.22 1145.87 600.629 1145.87 601.22C1145.87 601.649 1146.02 602.002 1146.32 602.277C1146.63 602.546 1147.04 602.68 1147.55 602.68C1148.25 602.68 1148.83 602.437 1149.28 601.95C1149.74 601.457 1149.97 600.836 1149.97 600.085V599.209ZM1158.62 596.287C1158.38 596.098 1158.02 596.003 1157.56 596.003C1156.95 596.003 1156.45 596.287 1156.04 596.854C1155.64 597.421 1155.44 598.195 1155.44 599.174V603.66H1154.03V594.86H1155.44V596.673H1155.48C1155.68 596.055 1155.98 595.573 1156.4 595.23C1156.81 594.88 1157.27 594.705 1157.78 594.705C1158.15 594.705 1158.43 594.746 1158.62 594.826V596.287ZM1164.23 603.574C1163.9 603.758 1163.46 603.849 1162.92 603.849C1161.38 603.849 1160.61 602.99 1160.61 601.271V596.063H1159.09V594.86H1160.61V592.712L1162.02 592.256V594.86H1164.23V596.063H1162.02V601.022C1162.02 601.612 1162.12 602.033 1162.32 602.285C1162.52 602.537 1162.85 602.663 1163.31 602.663C1163.67 602.663 1163.98 602.566 1164.23 602.371V603.574ZM1166.84 592.626C1166.59 592.626 1166.37 592.54 1166.19 592.368C1166.02 592.196 1165.93 591.978 1165.93 591.715C1165.93 591.451 1166.02 591.234 1166.19 591.062C1166.37 590.884 1166.59 590.795 1166.84 590.795C1167.1 590.795 1167.31 590.884 1167.49 591.062C1167.67 591.234 1167.77 591.451 1167.77 591.715C1167.77 591.967 1167.67 592.182 1167.49 592.359C1167.31 592.537 1167.1 592.626 1166.84 592.626ZM1167.53 603.66H1166.12V594.86H1167.53V603.66ZM1176.38 603.256C1175.7 603.663 1174.9 603.866 1173.97 603.866C1172.72 603.866 1171.7 603.46 1170.93 602.646C1170.16 601.827 1169.78 600.767 1169.78 599.466C1169.78 598.017 1170.19 596.854 1171.02 595.977C1171.85 595.095 1172.96 594.654 1174.35 594.654C1175.12 594.654 1175.8 594.797 1176.39 595.084V596.527C1175.74 596.069 1175.04 595.84 1174.3 595.84C1173.4 595.84 1172.66 596.164 1172.08 596.811C1171.51 597.453 1171.22 598.298 1171.22 599.346C1171.22 600.377 1171.49 601.191 1172.03 601.787C1172.57 602.383 1173.3 602.68 1174.21 602.68C1174.98 602.68 1175.7 602.426 1176.38 601.916V603.256ZM1179.23 592.626C1178.98 592.626 1178.76 592.54 1178.59 592.368C1178.41 592.196 1178.32 591.978 1178.32 591.715C1178.32 591.451 1178.41 591.234 1178.59 591.062C1178.76 590.884 1178.98 590.795 1179.23 590.795C1179.49 590.795 1179.71 590.884 1179.88 591.062C1180.07 591.234 1180.16 591.451 1180.16 591.715C1180.16 591.967 1180.07 592.182 1179.88 592.359C1179.71 592.537 1179.49 592.626 1179.23 592.626ZM1179.92 603.66H1178.51V594.86H1179.92V603.66ZM1184.21 602.388H1184.18V607.708H1182.77V594.86H1184.18V596.407H1184.21C1184.91 595.238 1185.92 594.654 1187.26 594.654C1188.39 594.654 1189.28 595.049 1189.91 595.84C1190.55 596.625 1190.87 597.679 1190.87 599.002C1190.87 600.475 1190.51 601.655 1189.79 602.543C1189.08 603.425 1188.1 603.866 1186.85 603.866C1185.71 603.866 1184.83 603.374 1184.21 602.388ZM1184.18 598.839V600.068C1184.18 600.796 1184.41 601.414 1184.88 601.924C1185.36 602.428 1185.96 602.68 1186.69 602.68C1187.54 602.68 1188.21 602.354 1188.69 601.701C1189.18 601.048 1189.42 600.14 1189.42 598.977C1189.42 597.997 1189.2 597.229 1188.74 596.673C1188.29 596.118 1187.68 595.84 1186.9 595.84C1186.08 595.84 1185.43 596.126 1184.93 596.699C1184.43 597.266 1184.18 597.98 1184.18 598.839ZM1199.42 603.66H1198.01V602.285H1197.97C1197.36 603.339 1196.46 603.866 1195.27 603.866C1194.39 603.866 1193.7 603.634 1193.2 603.17C1192.71 602.706 1192.46 602.09 1192.46 601.323C1192.46 599.678 1193.43 598.722 1195.37 598.452L1198.01 598.083C1198.01 596.587 1197.4 595.84 1196.19 595.84C1195.13 595.84 1194.18 596.201 1193.32 596.923V595.479C1194.19 594.929 1195.19 594.654 1196.31 594.654C1198.38 594.654 1199.42 595.748 1199.42 597.937V603.66ZM1198.01 599.209L1195.88 599.501C1195.23 599.592 1194.74 599.756 1194.41 599.991C1194.07 600.22 1193.91 600.629 1193.91 601.22C1193.91 601.649 1194.06 602.002 1194.36 602.277C1194.67 602.546 1195.08 602.68 1195.59 602.68C1196.29 602.68 1196.87 602.437 1197.32 601.95C1197.78 601.457 1198.01 600.836 1198.01 600.085V599.209ZM1209.38 603.66H1207.97V598.641C1207.97 596.774 1207.29 595.84 1205.92 595.84C1205.22 595.84 1204.63 596.106 1204.17 596.639C1203.71 597.166 1203.48 597.834 1203.48 598.641V603.66H1202.07V594.86H1203.48V596.321H1203.52C1204.18 595.21 1205.14 594.654 1206.4 594.654C1207.37 594.654 1208.1 594.966 1208.61 595.591C1209.12 596.209 1209.38 597.106 1209.38 598.28V603.66ZM1216.12 603.574C1215.79 603.758 1215.35 603.849 1214.81 603.849C1213.27 603.849 1212.5 602.99 1212.5 601.271V596.063H1210.98V594.86H1212.5V592.712L1213.91 592.256V594.86H1216.12V596.063H1213.91V601.022C1213.91 601.612 1214.01 602.033 1214.21 602.285C1214.41 602.537 1214.74 602.663 1215.2 602.663C1215.56 602.663 1215.86 602.566 1216.12 602.371V603.574ZM1217.47 603.342V601.83C1218.24 602.397 1219.08 602.68 1220.01 602.68C1221.24 602.68 1221.86 602.268 1221.86 601.443C1221.86 601.208 1221.81 601.01 1221.7 600.85C1221.6 600.684 1221.45 600.538 1221.27 600.412C1221.09 600.286 1220.88 600.174 1220.63 600.077C1220.39 599.973 1220.13 599.867 1219.85 599.759C1219.46 599.604 1219.12 599.449 1218.82 599.295C1218.53 599.134 1218.28 598.957 1218.08 598.762C1217.89 598.561 1217.74 598.335 1217.64 598.083C1217.54 597.831 1217.49 597.536 1217.49 597.198C1217.49 596.785 1217.58 596.421 1217.77 596.106C1217.96 595.785 1218.21 595.519 1218.53 595.307C1218.84 595.089 1219.2 594.926 1219.6 594.817C1220.01 594.708 1220.43 594.654 1220.86 594.654C1221.62 594.654 1222.3 594.786 1222.9 595.049V596.476C1222.26 596.052 1221.51 595.84 1220.67 595.84C1220.41 595.84 1220.17 595.871 1219.96 595.934C1219.74 595.992 1219.56 596.075 1219.41 596.184C1219.26 596.292 1219.14 596.424 1219.05 596.579C1218.97 596.728 1218.93 596.894 1218.93 597.077C1218.93 597.307 1218.97 597.498 1219.05 597.653C1219.14 597.808 1219.26 597.945 1219.42 598.066C1219.58 598.186 1219.78 598.295 1220.01 598.392C1220.24 598.49 1220.5 598.596 1220.79 598.71C1221.18 598.859 1221.53 599.014 1221.84 599.174C1222.15 599.329 1222.41 599.507 1222.63 599.707C1222.85 599.902 1223.01 600.128 1223.13 600.386C1223.25 600.644 1223.31 600.95 1223.31 601.305C1223.31 601.741 1223.21 602.119 1223.01 602.44C1222.83 602.761 1222.57 603.027 1222.25 603.239C1221.93 603.451 1221.56 603.609 1221.14 603.712C1220.72 603.815 1220.28 603.866 1219.83 603.866C1218.92 603.866 1218.14 603.692 1217.47 603.342Z" fill="white"/>
</svg>
