<svg width="43" height="40" viewBox="0 0 43 40" fill="none" xmlns="http://www.w3.org/2000/svg">
<path d="M10.3533 30.6001C10.2341 30.6028 10.1156 30.5815 10.0049 30.5374C9.89413 30.4933 9.79345 30.4272 9.70885 30.3433C9.62316 30.2609 9.55555 30.1616 9.51031 30.0517C9.46506 29.9418 9.44318 29.8237 9.44605 29.7049C9.44605 29.4529 9.53245 29.2369 9.70525 29.0629C9.78816 28.9772 9.88789 28.9097 9.99817 28.8645C10.1084 28.8192 10.2269 28.7973 10.3461 28.8001H10.6461V22.8001C10.6461 21.3505 11.0925 20.0761 11.9841 18.9745C12.8757 17.8753 14.0289 17.1925 15.4461 16.9249V15.6001C15.4461 15.2665 15.5625 14.9833 15.7965 14.7505C15.9066 14.6371 16.0388 14.5476 16.185 14.4873C16.3311 14.427 16.488 14.3973 16.6461 14.4001C16.9797 14.4001 17.2629 14.5165 17.4957 14.7505C17.7297 14.9833 17.8461 15.2665 17.8461 15.6001V16.9249C19.2621 17.1913 20.4165 17.8753 21.3081 18.9745C22.2021 20.0761 22.6461 21.3517 22.6461 22.8001V28.8001H22.9461C23.2017 28.8001 23.4141 28.8865 23.5869 29.0569C23.6715 29.1398 23.7382 29.2393 23.7828 29.3491C23.8274 29.4589 23.8489 29.5768 23.8461 29.6953C23.8461 29.9473 23.7597 30.1633 23.5881 30.3373C23.505 30.4231 23.4051 30.4907 23.2946 30.5359C23.1841 30.5812 23.0654 30.603 22.9461 30.6001H10.3533ZM16.6413 33.6001C16.1445 33.6001 15.7209 33.4237 15.3705 33.0721C15.2012 32.9068 15.0674 32.7088 14.9772 32.4901C14.887 32.2714 14.8424 32.0366 14.8461 31.8001H18.4461C18.4461 32.3005 18.2697 32.7241 17.9157 33.0757C17.7499 33.2449 17.5514 33.3787 17.3323 33.4688C17.1133 33.559 16.8781 33.6036 16.6413 33.6001ZM12.4461 28.8001H20.8461V22.8001C20.8461 21.6337 20.4381 20.6413 19.6221 19.8241C18.8048 19.0081 17.8125 18.6001 16.6461 18.6001C15.4797 18.6001 14.4873 19.0081 13.6701 19.8241C12.8541 20.6425 12.4461 21.6349 12.4461 22.8001V28.8001Z" fill="#5B6780"/>
<rect x="17.645" width="21" height="20" rx="10" fill="#D30A28"/>
<path d="M24.829 15V13.496H27.101V6.808H25.229V5.656C25.7304 5.56 26.1677 5.448 26.541 5.32C26.9144 5.18133 27.261 5.016 27.581 4.824H28.957V13.496H30.957V15H24.829Z" fill="white"/>
</svg>
