<svg width="28" height="23" viewBox="0 0 28 23" fill="none" xmlns="http://www.w3.org/2000/svg">
<path d="M5.59605 5.65958C5.6773 5.89708 5.83042 6.05645 6.05542 6.1377C6.28667 6.21895 6.50542 6.19083 6.71167 6.05333L11.1648 2.90333C11.3648 2.75958 11.471 2.5627 11.4835 2.3127C11.5023 2.05645 11.421 1.84395 11.2398 1.6752C10.6523 1.14395 9.96167 0.847076 9.16792 0.784576C8.37417 0.722076 7.64292 0.928326 6.97417 1.40333C6.29917 1.88458 5.83667 2.52208 5.58667 3.31583C5.34292 4.10333 5.34605 4.88458 5.59605 5.65958ZM13.5179 6.85958C13.3304 6.85958 13.171 6.9252 13.0398 7.05645C12.9085 7.1877 12.8429 7.34708 12.8429 7.53458V10.9002C12.8429 11.144 12.9429 11.3346 13.1429 11.4721L15.1679 12.8221C15.3242 12.9283 15.4929 12.9627 15.6742 12.9252C15.8617 12.8877 16.0054 12.7908 16.1054 12.6346C16.2117 12.4783 16.246 12.3096 16.2085 12.1283C16.171 11.9471 16.0742 11.8033 15.9179 11.6971L14.1929 10.5533V7.53458C14.1929 7.34708 14.1273 7.1877 13.996 7.05645C13.8648 6.9252 13.7054 6.85958 13.5179 6.85958ZM18.3929 16.0283L19.7898 17.2471C20.0273 17.4533 20.1773 17.694 20.2398 17.969C20.3023 18.244 20.2898 18.5127 20.2023 18.7752C20.1148 19.0377 19.9648 19.2565 19.7523 19.4315C19.546 19.6065 19.2898 19.694 18.9835 19.694H8.0523C7.74605 19.694 7.48667 19.6065 7.27417 19.4315C7.06792 19.2565 6.92105 19.0377 6.83355 18.7752C6.7523 18.5127 6.7398 18.244 6.79605 17.969C6.85855 17.694 7.00855 17.4533 7.24605 17.2471L8.9898 15.7377C8.3023 15.0877 7.75855 14.319 7.35855 13.4315C6.95855 12.544 6.75855 11.5908 6.75855 10.5721C6.75855 9.59083 6.94292 8.67208 7.31167 7.81583C7.68042 6.95958 8.1898 6.20645 8.8398 5.55645C9.4898 4.90645 10.2429 4.39708 11.0992 4.02833C11.9617 3.65958 12.8804 3.4752 13.8554 3.4752C14.8367 3.4752 15.7554 3.65958 16.6117 4.02833C17.4679 4.39708 18.221 4.90645 18.871 5.55645C19.521 6.20645 20.0304 6.95958 20.3992 7.81583C20.7679 8.67208 20.9523 9.59083 20.9523 10.5721C20.9523 11.6721 20.721 12.694 20.2585 13.6377C19.796 14.5815 19.1742 15.3783 18.3929 16.0283ZM13.8554 15.644C14.5554 15.644 15.2117 15.5127 15.8242 15.2502C16.4367 14.9877 16.9742 14.6252 17.4367 14.1627C17.9054 13.694 18.271 13.1533 18.5335 12.5408C18.796 11.9283 18.9273 11.2721 18.9273 10.5721C18.9273 9.87208 18.796 9.21583 18.5335 8.60333C18.271 7.99083 17.9054 7.45333 17.4367 6.99083C16.9742 6.52208 16.4367 6.15645 15.8242 5.89395C15.2117 5.63145 14.5554 5.5002 13.8554 5.5002C13.1554 5.5002 12.4992 5.63145 11.8867 5.89395C11.2742 6.15645 10.7367 6.52208 10.2742 6.99083C9.81167 7.45333 9.44917 7.99083 9.18667 8.60333C8.92417 9.21583 8.79292 9.87208 8.79292 10.5721C8.79292 11.2721 8.92417 11.9283 9.18667 12.5408C9.44917 13.1533 9.81167 13.694 10.2742 14.1627C10.7367 14.6252 11.2742 14.9877 11.8867 15.2502C12.4992 15.5127 13.1554 15.644 13.8554 15.644ZM20.746 1.40333C20.071 0.928326 19.3367 0.722076 18.5429 0.784576C17.7492 0.847076 17.0585 1.14395 16.471 1.6752C16.2898 1.84395 16.2054 2.05645 16.2179 2.3127C16.2367 2.5627 16.346 2.75958 16.546 2.90333L21.0085 6.05333C21.2085 6.19083 21.4242 6.21895 21.6554 6.1377C21.8867 6.05645 22.0398 5.89708 22.1148 5.65958C22.3648 4.88458 22.3679 4.10333 22.1242 3.31583C21.8804 2.52208 21.421 1.88458 20.746 1.40333Z" fill="#DC3545"/>
</svg>
