<svg width="32" height="32" viewBox="0 0 32 32" fill="none" xmlns="http://www.w3.org/2000/svg">
<path fill-rule="evenodd" clip-rule="evenodd" d="M0 16C0 7.16344 7.16344 0 16 0C24.8366 0 32 7.16344 32 16C32 24.8366 24.8366 32 16 32C7.16344 32 0 24.8366 0 16ZM22.5966 6.93333H9.93676C8.86918 6.93333 8 7.792 8 8.856V21.4747C8 22.5387 8.86918 23.3973 9.93676 23.3973H20.6504L20.1496 21.6707L21.3589 22.7813L22.5021 23.8267L24.5333 25.6V8.856C24.5333 7.792 23.6642 6.93333 22.5966 6.93333Z" fill="white"/>
<path fill-rule="evenodd" clip-rule="evenodd" d="M18.9498 19.1227C18.9498 19.1227 18.6097 18.7213 18.3262 18.3667C19.5639 18.0213 20.0363 17.256 20.0363 17.256C19.6489 17.508 19.2805 17.6853 18.9498 17.8067C18.4774 18.0027 18.0239 18.1333 17.5799 18.208C16.6729 18.376 15.8415 18.3293 15.133 18.1987C14.5944 18.096 14.1315 17.9467 13.7442 17.7973C13.5269 17.7133 13.2907 17.6107 13.0545 17.48C13.0261 17.4613 12.9978 17.452 12.9694 17.4333C12.9506 17.424 12.9411 17.4147 12.9317 17.4053C12.7616 17.312 12.6671 17.2467 12.6671 17.2467C12.6671 17.2467 13.1206 17.9933 14.3205 18.348C14.037 18.7027 13.6875 19.1227 13.6875 19.1227C11.5995 19.0573 10.8059 17.704 10.8059 17.704C10.8059 14.6987 12.1664 12.2627 12.1664 12.2627C13.5269 11.2547 14.8212 11.2827 14.8212 11.2827L14.9157 11.3947C13.2151 11.88 12.4309 12.6173 12.4309 12.6173C12.4309 12.6173 12.6388 12.5053 12.9883 12.3467C13.9992 11.908 14.8023 11.7867 15.133 11.7587C15.1896 11.7493 15.2369 11.74 15.2936 11.74C15.8699 11.6653 16.5218 11.6467 17.202 11.7213C18.0995 11.824 19.0632 12.0853 20.0457 12.6173C20.0457 12.6173 19.2994 11.9173 17.6933 11.432L17.8255 11.2827C17.8255 11.2827 19.1198 11.2547 20.4803 12.2627C20.4803 12.2627 21.8408 14.6987 21.8408 17.704C21.8408 17.704 21.0377 19.0573 18.9498 19.1227ZM14.8227 14.9333C14.2885 14.9333 13.8667 15.4138 13.8667 16C13.8667 16.5862 14.2978 17.0667 14.8227 17.0667C15.357 17.0667 15.7788 16.5862 15.7788 16C15.7882 15.4138 15.357 14.9333 14.8227 14.9333ZM18.2439 14.9333C17.7097 14.9333 17.2879 15.4138 17.2879 16C17.2879 16.5862 17.719 17.0667 18.2439 17.0667C18.7782 17.0667 19.2 16.5862 19.2 16C19.2 15.4138 18.7782 14.9333 18.2439 14.9333Z" fill="white"/>
</svg>
