<svg width="20" height="21" viewBox="0 0 20 21" fill="none" xmlns="http://www.w3.org/2000/svg">
<path fill-rule="evenodd" clip-rule="evenodd" d="M1.875 10.5132C1.875 6.02568 5.5125 2.38818 10 2.38818C14.4875 2.38818 18.125 6.02568 18.125 10.5132C18.125 15.0007 14.4875 18.6382 10 18.6382C5.5125 18.6382 1.875 15.0007 1.875 10.5132ZM9.13 9.31152C10.085 8.83402 11.1608 9.69735 10.9017 10.7332L10.3108 13.0965L10.3458 13.0799C10.4927 13.0153 10.6587 13.0097 10.8096 13.0641C10.9605 13.1186 11.0846 13.229 11.1564 13.3725C11.2281 13.516 11.2419 13.6815 11.195 13.8349C11.148 13.9883 11.0439 14.1178 10.9042 14.1965L10.8708 14.2148C9.915 14.6923 8.83917 13.829 9.09833 12.7932L9.69 10.4298L9.655 10.4465C9.58128 10.4875 9.50003 10.5131 9.41615 10.5219C9.33226 10.5306 9.24748 10.5223 9.1669 10.4974C9.08632 10.4725 9.01161 10.4315 8.94727 10.377C8.88294 10.3225 8.8303 10.2555 8.79254 10.1801C8.75478 10.1046 8.73267 10.0224 8.72754 9.93819C8.72242 9.85401 8.73439 9.76966 8.76272 9.69022C8.79106 9.61079 8.83518 9.53791 8.89243 9.47597C8.94968 9.41404 9.01887 9.36434 9.09583 9.32985L9.13 9.31152ZM10 8.01318C10.1658 8.01318 10.3247 7.94734 10.4419 7.83012C10.5592 7.71291 10.625 7.55394 10.625 7.38818C10.625 7.22242 10.5592 7.06345 10.4419 6.94624C10.3247 6.82903 10.1658 6.76318 10 6.76318C9.83424 6.76318 9.67527 6.82903 9.55806 6.94624C9.44085 7.06345 9.375 7.22242 9.375 7.38818C9.375 7.55394 9.44085 7.71291 9.55806 7.83012C9.67527 7.94734 9.83424 8.01318 10 8.01318Z" fill="#FF3B30"/>
</svg>
