<svg width="33" height="32" viewBox="0 0 33 32" fill="none" xmlns="http://www.w3.org/2000/svg">
<path d="M16.6436 25.6001C15.3638 25.6075 14.096 25.3522 12.9188 24.8501C11.7751 24.3654 10.7354 23.665 9.85641 22.7873C8.97861 21.9083 8.27826 20.8686 7.79361 19.7249C7.29149 18.5476 7.03623 17.2799 7.04361 16.0001C7.04361 14.6669 7.29321 13.4201 7.79361 12.2621C8.77605 9.9594 10.6127 8.1271 12.9176 7.15007C14.0952 6.64778 15.3634 6.39251 16.6436 6.40007C17.9768 6.40007 19.2236 6.64967 20.3816 7.15007C22.6798 8.1329 24.5108 9.96383 25.4936 12.2621C25.994 13.4213 26.2436 14.6681 26.2436 16.0001C26.251 17.2799 25.9957 18.5476 25.4936 19.7249C24.5169 22.0303 22.6846 23.8675 20.3816 24.8501C19.2005 25.3547 17.928 25.6101 16.6436 25.6001ZM16.6436 23.7245C16.9268 23.4413 17.21 22.9121 17.4932 22.1381C17.7764 21.3629 17.9936 20.5169 18.1436 19.6001H15.1436C15.2936 20.5169 15.5108 21.3629 15.794 22.1381C16.0772 22.9121 16.3604 23.4413 16.6436 23.7245ZM14.3684 23.4749C14.1152 22.9187 13.9104 22.3418 13.7564 21.7505C13.5694 21.0426 13.4232 20.3246 13.3184 19.6001H9.74361C10.2142 20.534 10.869 21.363 11.6684 22.0373C12.4546 22.705 13.3755 23.1954 14.3684 23.4749ZM18.9188 23.4749C19.9117 23.1954 20.8327 22.705 21.6188 22.0373C22.4182 21.363 23.073 20.534 23.5436 19.6001H19.9676C19.8524 20.3837 19.706 21.1001 19.5308 21.7505C19.3769 22.3418 19.1721 22.9188 18.9188 23.4749ZM9.06801 17.8001H13.094C13.0611 17.4886 13.0402 17.176 13.0316 16.8629C13.0156 16.263 13.0156 15.6628 13.0316 15.0629C13.0397 14.7745 13.0605 14.4866 13.094 14.2001H9.06921C8.98521 14.5169 8.92641 14.8205 8.89401 15.1121C8.82648 15.7021 8.82648 16.298 8.89401 16.8881C8.92641 17.1797 8.98401 17.4833 9.06801 17.8001ZM14.9192 17.8001H18.368C18.4016 17.4665 18.4232 17.1545 18.4316 16.8629C18.4482 16.2838 18.4482 15.7043 18.4316 15.1253C18.4232 14.8253 18.4016 14.5169 18.368 14.2001H14.9192C14.8856 14.5169 14.864 14.8241 14.8556 15.1241C14.8394 15.708 14.8394 16.2922 14.8556 16.8761C14.864 17.1761 14.8856 17.4833 14.9192 17.8001ZM20.1932 17.8001H24.218C24.2982 17.5006 24.3567 17.1959 24.3932 16.8881C24.4617 16.294 24.4617 15.6941 24.3932 15.1001C24.3608 14.8001 24.302 14.5001 24.2192 14.2001H20.1932C20.2268 14.5169 20.2484 14.8289 20.2556 15.1373C20.2717 15.7372 20.2717 16.3374 20.2556 16.9373C20.2476 17.2256 20.2268 17.5135 20.1932 17.8001ZM19.9688 12.4001H23.5436C23.0729 11.4662 22.4182 10.6372 21.6188 9.96287C20.8326 9.29512 19.9117 8.80478 18.9188 8.52527C19.1516 9.02567 19.3556 9.60047 19.5308 10.2497C19.706 10.9001 19.8524 11.6177 19.9688 12.4001ZM15.1436 12.4001H18.1436C18.007 11.5355 17.7892 10.6858 17.4932 9.86207C17.21 9.08807 16.9268 8.56007 16.6436 8.27567C16.3604 8.55887 16.0772 9.08807 15.794 9.86207C15.5108 10.6373 15.2936 11.4833 15.1436 12.4001ZM9.74361 12.4001H13.3196C13.4348 11.6165 13.5812 10.9001 13.7564 10.2497C13.9316 9.60047 14.1356 9.02567 14.3684 8.52527C13.3756 8.80485 12.4546 9.29519 11.6684 9.96287C10.869 10.6372 10.2143 11.4662 9.74361 12.4001Z" fill="#5B6780"/>
</svg>
