<svg width="53" height="21" viewBox="0 0 53 21" fill="none" xmlns="http://www.w3.org/2000/svg">
<path d="M-0.00976562 18.12H15.9902V2.12H-0.00976562V18.12ZM28.3652 17H21.6934V5.79688H24.2168V14.9531H28.3652V17ZM32.4043 17H29.8809V5.79688H32.4043V17ZM44.2871 5.79688L40.4277 17H37.5684L33.7559 5.79688H36.4746L38.8105 13.5938C38.9355 14.0156 39.0111 14.388 39.0371 14.7109H39.084C39.1204 14.362 39.2012 13.9792 39.3262 13.5625L41.6465 5.79688H44.2871ZM52.3496 17H45.6309V5.79688H52.0918V7.85156H48.1543V10.3438H51.8184V12.3906H48.1543V14.9531H52.3496V17Z" fill="#DC3545"/>
</svg>
