<svg width="202" height="60" viewBox="0 0 202 60" fill="none" xmlns="http://www.w3.org/2000/svg">
<path d="M183.609 44.4406C186.62 44.4406 188.095 43.3545 189.109 40.3051L193.166 28.1545H189.776L187.269 37.4442H187.216L184.709 28.1545H181.177L185.279 40.0511C185.302 40.0969 185.181 40.5735 185.181 40.6148C184.96 41.5568 184.378 41.9352 183.199 41.9352C183.079 41.9352 182.497 41.9352 182.396 41.9123V44.4059C182.497 44.4289 183.495 44.44 183.608 44.44L183.609 44.4406Z" fill="#242424"/>
<path d="M173.228 40.0399H176.441V33.399C176.441 31.7263 177.364 30.7502 178.948 30.7502C179.41 30.7502 179.849 30.8261 180.112 30.9394V28.0896C179.894 28.0215 179.575 27.9685 179.2 27.9685C177.815 27.9685 176.813 28.7862 176.396 30.2958H176.328V28.1544H173.228V40.0399H173.228Z" fill="#242424"/>
<path d="M166.08 25.418V28.1538H164.417V30.5944H166.08V36.834C166.08 39.1535 167.157 40.0844 169.928 40.0844C170.577 40.0844 171.129 40.0275 171.456 39.9522V37.5685C171.26 37.5987 170.964 37.6216 170.675 37.6216C169.729 37.6216 169.289 37.1901 169.289 36.2821V30.5951H171.467V28.1545H169.289V25.4186H166.08V25.418Z" fill="#242424"/>
<path d="M153.424 31.6465C153.424 33.3984 154.565 34.5754 156.798 35.0822L158.976 35.5705C160.03 35.8278 160.429 36.1604 160.429 36.7588C160.429 37.5345 159.693 38.0223 158.469 38.0223C157.193 38.0223 156.413 37.4435 156.258 36.4484H153.124C153.3 38.764 155.237 40.2926 158.383 40.2926C161.494 40.2926 163.627 38.7522 163.627 36.4144C163.627 34.6396 162.67 33.6975 160.308 33.1673L158.052 32.6789C157.02 32.4334 156.513 32.0353 156.513 31.4455C156.513 30.6808 157.237 30.1741 158.348 30.1741C159.534 30.1741 160.297 30.7607 160.36 31.7139H163.318C163.277 29.4062 161.351 27.8998 158.393 27.8998C155.368 27.8998 153.423 29.3872 153.423 31.6458L153.424 31.6465Z" fill="#242424"/>
<path d="M151.533 28.1547H148.319V34.9619C148.319 36.5364 147.43 37.5688 146 37.5688C144.581 37.5688 143.8 36.7249 143.8 35.1393V28.1541H140.591V35.8162C140.591 38.5861 142.284 40.2627 144.837 40.2627C147.707 40.2627 148.253 37.9014 148.432 37.9014V40.0395H151.533V28.1541V28.1547Z" fill="#242424"/>
<path d="M131.607 40.2291C134.279 40.2291 135.274 37.9999 135.338 37.9999V40.0392H138.502V24.0405H135.293V30.1937C135.175 30.1937 134.308 27.9685 131.629 27.9685C128.671 27.9685 126.802 30.307 126.802 34.0759C126.802 37.8788 128.66 40.2291 131.607 40.2291ZM131.344 30.561C132.939 30.561 133.963 31.9345 133.963 34.0988C133.963 36.271 132.939 37.6215 131.344 37.6215C129.729 37.6215 128.738 36.2821 128.738 34.0988C128.738 31.9233 129.729 30.561 131.344 30.561Z" fill="#242424"/>
<path d="M114.251 40.04H117.464V33.2217C117.464 31.6812 118.376 30.6181 119.818 30.6181C121.259 30.6181 121.983 31.5032 121.983 33.0554V40.0406H125.193V32.3817C125.193 29.5968 123.721 27.9352 121.105 27.9352C118.205 27.9352 117.508 30.2737 117.351 30.2737V28.1546H114.251V40.04Z" fill="#242424"/>
<path d="M110.515 26.8485C111.483 26.8485 112.231 26.1035 112.231 25.1726C112.231 24.2305 111.484 23.4999 110.515 23.4999C109.547 23.4999 108.8 24.2305 108.8 25.1726C108.8 26.1035 109.547 26.8485 110.515 26.8485Z" fill="#242424"/>
<path d="M108.909 40.04H112.119V28.1546H108.909V40.04Z" fill="#242424"/>
<path d="M100.026 40.229C102.472 40.229 103.613 38.2238 103.689 38.2238V40.0398H106.79V31.8703C106.79 29.4748 104.819 27.901 101.797 27.901C98.6745 27.901 96.7263 29.4866 96.6062 31.7911H99.5415C99.6954 30.9171 100.454 30.3187 101.655 30.3187C102.863 30.3187 103.633 30.9622 103.633 32.0706V32.8575L100.664 33.0316C97.7283 33.2097 96.0769 34.4621 96.0769 36.6264C96.0769 38.7645 97.7809 40.229 100.026 40.229ZM101.081 37.8906C99.9922 37.8906 99.2674 37.3341 99.2674 36.449C99.2674 35.6051 99.9467 35.0637 101.148 34.9727L103.633 34.8176C103.633 36.5583 103.199 37.8899 101.081 37.8899V37.8906Z" fill="#242424"/>
<path d="M83.4404 40.0399H86.6498V33.2556C86.6498 31.6929 87.5433 30.618 89.0597 30.618C90.5235 30.618 91.2703 31.5489 91.2703 33.0776V40.0406H94.4796V32.3928C94.4796 29.6419 92.986 27.9352 90.3696 27.9352C87.4661 27.9352 86.7323 30.2736 86.5978 30.2736V24.0412H83.4411V40.0399H83.4404Z" fill="#242424"/>
<path d="M74.6155 40.3162C78.508 40.3162 81.2219 38.057 81.5972 34.4851H78.3658C78.0132 36.381 76.5942 37.5463 74.6272 37.5463C72.0861 37.5463 70.4911 35.4383 70.4911 32.0255C70.4911 28.654 72.1088 26.5388 74.6161 26.5388C76.5494 26.5388 78.0469 27.8219 78.3547 29.7859H81.5862C81.3348 26.2062 78.4294 23.7656 74.6155 23.7656C70.0177 23.7656 67.1045 26.8799 67.1045 32.0373C67.1045 37.2026 69.995 40.3169 74.6155 40.3169V40.3162Z" fill="#242424"/>
<path fill-rule="evenodd" clip-rule="evenodd" d="M29.733 8.00131L40.5313 18.8871C42.7198 21.0933 42.8282 24.6337 40.8573 26.9722L20.6901 47.331L9.61455 36.1447C7.70011 33.93 7.68193 30.601 9.56065 28.3653L29.7337 8L29.733 8.00131Z" fill="#E6E6E6"/>
<path fill-rule="evenodd" clip-rule="evenodd" d="M37.4245 8.00131L48.2227 18.8871C50.4112 21.0933 50.5197 24.6337 48.5487 26.9722L28.3815 47.331L17.306 36.1447C15.3915 33.93 15.3733 30.601 17.2521 28.3653L37.4251 8L37.4245 8.00131Z" fill="#281451"/>
<path fill-rule="evenodd" clip-rule="evenodd" d="M46.3522 8.00131L57.1505 18.8871C59.3389 21.0933 59.4474 24.6337 57.4765 26.9722L37.3093 47.331L26.2337 36.1447C24.3193 33.93 24.3011 30.601 26.1798 28.3653L46.3528 8L46.3522 8.00131Z" fill="#E25F81"/>
</svg>
